<?xml version="1.0" encoding="utf-8"?>
<svg xmlns="http://www.w3.org/2000/svg"
     xmlns:d="http://www.mathworks.com/blockgraphics"
     d:options="PreserveAspect:On;Resize:FitToBlock;Frame:Adaptive;Rotate:Off"
     height="100"
     id="Layer_1"
     version="1.1"
     width="150">
   <defs>
      <style>.cls-1{fill:#4d4d4d;}.cls-2{fill:#d9d9d9;}.cls-3{fill:#bfbfbf;}.cls-4{fill:#333;}</style>
   </defs>
   <title>Utilities_042619</title>
   <path class="cls-1"
         d="M69.18,45.73a.61.61,0,0,0,.18,0h0a.61.61,0,0,1-.18,0,.8.8,0,0,1-.31,0h0A.8.8,0,0,0,69.18,45.73Z"/>
   <path class="cls-1"
         d="M70.4,45.3c.11.07.11.3.11.4l0,.27a2.48,2.48,0,0,0,0-.27c0-.1,0-.33-.11-.4a.2.2,0,0,0-.1,0,.81.81,0,0,0-.26.09.81.81,0,0,1,.26-.09A.2.2,0,0,1,70.4,45.3Z"/>
   <path class="cls-1"
         d="M70.36,46.61c0-.06,0-.11,0-.17l0-.17,0,.17C70.39,46.49,70.37,46.55,70.36,46.61Z"/>
   <path class="cls-1"
         d="M69.41,47.91a.38.38,0,0,1,.21.17l0,.09,0-.09A.35.35,0,0,0,69.41,47.91Z"/>
   <path class="cls-1"
         d="M68.56,48l-.3.09.3-.09a1.46,1.46,0,0,1,.83-.12A1.46,1.46,0,0,0,68.56,48Z"/>
   <polygon class="cls-1" points="68.06 46.38 67.88 45.92 68.06 46.38 68.06 46.38"/>
   <path class="cls-1"
         d="M66.91,46.12c.07.16.13.31.18.44l.39-.05-.39.05C67,46.43,67,46.28,66.91,46.12Z"/>
   <path class="cls-1" d="M67.85,45.85c-.4-.06-.75-.14-1.14-.21h0c.39.06.74.14,1.14.2Z"/>
   <path class="cls-1" d="M68.31,45.79l-.11,0h0Z"/>
   <path class="cls-1" d="M68.29,46.34l.22-.07-.22.07Z"/>
   <path class="cls-1" d="M68,52.34a1.19,1.19,0,0,0,0-.25S68.05,52.22,68,52.34Z"/>
   <path class="cls-1" d="M67.35,46.82h0Z"/>
   <path class="cls-1" d="M67.52,47.08a.19.19,0,0,0,0-.08A.19.19,0,0,1,67.52,47.08Z"/>
   <path class="cls-1" d="M69.87,48.79a.31.31,0,0,1,0-.08A.31.31,0,0,0,69.87,48.79Z"/>
   <path class="cls-1" d="M67.36,46.83a.41.41,0,0,1,.1.09h0A.41.41,0,0,0,67.36,46.83Z"/>
   <path class="cls-1"
         d="M69.82,45.61h0a3.2,3.2,0,0,1-.94.7A3.16,3.16,0,0,0,69.82,45.61Z"/>
   <path class="cls-1" d="M67.63,46.73h0Z"/>
   <path class="cls-1" d="M69.92,48.91c0-.45.14-.89.23-1.33-.09.44-.18.88-.23,1.32Z"/>
   <path class="cls-1" d="M67.38,46.78l.25-.05Z"/>
   <path class="cls-1" d="M85.3,53h0a.19.19,0,0,1,.18.18h0A.19.19,0,0,0,85.3,53Z"/>
   <path class="cls-1" d="M85.17,53s0,0,.08,0S85.19,53,85.17,53Z"/>
   <path class="cls-1"
         d="M85.3,53.36a.19.19,0,0,1-.19-.19.18.18,0,0,1,0-.12.17.17,0,0,0,0,.12.19.19,0,0,0,.19.19.18.18,0,0,0,.16-.14A.18.18,0,0,1,85.3,53.36Z"/>
   <path class="cls-2"
         d="M90.06,57.23l6.69,4.12a2.2,2.2,0,1,1-2.31,3.75l-12.8-7.87H80.45l19.64,12.08a3,3,0,0,1,1.44,2.56A8.23,8.23,0,0,0,116.24,77a8.11,8.11,0,0,0,1.63-6.55,8.22,8.22,0,0,0-11.82-5.89,3.05,3.05,0,0,1-2.93-.13L91.46,57.23Zm12.67,16.08.46-1.61-.37-1.63a.49.49,0,0,1,.14-.47l1.2-1.16.5-1.6a.52.52,0,0,1,.35-.34l1.63-.4L107.87,65a.48.48,0,0,1,.47-.11l1.61.46,1.63-.37a.49.49,0,0,1,.47.14l1.17,1.2,1.59.5a.5.5,0,0,1,.34.36l.41,1.62L116.69,70a.51.51,0,0,1,.12.47l-.46,1.61.36,1.64a.47.47,0,0,1-.14.46l-1.2,1.17-.5,1.6a.49.49,0,0,1-.35.33l-1.62.41-1.23,1.13a.51.51,0,0,1-.34.14l-.14,0-1.61-.46-1.63.36a.49.49,0,0,1-.47-.14l-1.16-1.2-1.6-.49a.51.51,0,0,1-.34-.36L104,75l-1.13-1.23A.5.5,0,0,1,102.73,73.31Z"/>
   <path class="cls-2"
         d="M51.26,28.68a11,11,0,0,0-3-6.58,12.47,12.47,0,0,0-8.33-2.3l5.71,5.49a.51.51,0,0,1,.12.56l-2,4.93a.49.49,0,0,1-.25.26l-4.85,2.24a.51.51,0,0,1-.56-.1l-5.71-5.49C32,32,34.86,35.8,35,36c2.29,3.07,7.13,2.21,7.18,2.2s.45-.08,1.06-.15A11,11,0,0,0,51.26,28.68Z"/>
   <path class="cls-2"
         d="M69.72,49.88,53.13,39.67a2.2,2.2,0,0,1,2.31-3.75l22.69,14h1.4l-23-14.13a11.59,11.59,0,0,1-5-5.76A11.34,11.34,0,0,1,45,37.93h.28a14.91,14.91,0,0,1,5.22.87l18,11.09Z"/>
   <path class="cls-3"
         d="M97.47,64.38a2.21,2.21,0,0,0-.72-3l-6.69-4.12H81.64l12.8,7.87A2.21,2.21,0,0,0,97.47,64.38Z"/>
   <path class="cls-3"
         d="M52.41,36.64a2.2,2.2,0,0,0,.72,3L69.72,49.88h2.54l-.05,0,0-.07c.25.13.26.13.45-.19l.69-1.15h0l-1.63,1.09-.07-.05.26-1.88h0l-.51.77a4.84,4.84,0,0,0-.31.51c0,.11,0,.18.17.31l0,.07-.66-.41,0-.07c.17.09.24.09.33,0a4.33,4.33,0,0,0,.37-.51l.4-.57c.25-.37.25-.41,0-.59l0-.07.47.29L72,49.21l1.57-1.05.47.29,0,.07c-.26-.14-.28-.13-.47.18l-.6,1-.08.14h1.42a.26.26,0,0,0-.07-.37c-.14-.09-.28,0-.38.1a.08.08,0,0,1-.1,0s-.09-.12-.06-.17.08-.06.17-.06a1.25,1.25,0,0,1,.56.07.45.45,0,0,1,.18.21.25.25,0,0,1,0,.21h.64l.05-.09.3-.07,0,0-.09.14h.84a.54.54,0,0,0-.13-.11l0-.06a4.49,4.49,0,0,0,.48.16h1.39l-22.69-14A2.2,2.2,0,0,0,52.41,36.64ZM68.2,45.82l.11,0a1.25,1.25,0,0,1,.26-.07.5.5,0,0,1,.21,0h.09a.8.8,0,0,0,.31,0,.61.61,0,0,0,.18,0h0a3.15,3.15,0,0,0,.56-.24l.11-.06a.81.81,0,0,1,.26-.09.2.2,0,0,1,.1,0c.11.07.11.3.11.4a2.48,2.48,0,0,1,0,.27c0,.1,0,.2,0,.3l0,.17c0,.06,0,.11,0,.17l-.12.52-.09.45c-.09.44-.18.88-.23,1.33h0a.61.61,0,0,1,0-.12.31.31,0,0,1,0-.08c0-.05,0-.11,0-.17s0-.18-.08-.27l0-.1,0-.09a.38.38,0,0,0-.21-.17h0a1.46,1.46,0,0,0-.83.12l-.3.09a1.43,1.43,0,0,1-.28.07,1.08,1.08,0,0,1-.56,0c0-.17,0-.34.07-.5a1.62,1.62,0,0,0,0-.58.19.19,0,0,0,0-.08s0-.06,0-.08a.41.41,0,0,0-.1-.09h0l0,0h.09l.25-.05h0a4.75,4.75,0,0,0,.74-.19,3.15,3.15,0,0,0,.49-.22,3.2,3.2,0,0,0,.94-.7,3.94,3.94,0,0,1-1.3.65l-.22.07h0l-.18-.48.07,0Zm-1.49-.18c.39.07.74.15,1.14.21h0l0,.07.18.46h0a4.3,4.3,0,0,1-.58.13l-.39.05c0-.13-.11-.28-.18-.44l-.2-.48h0Z"/>
   <path class="cls-1"
         d="M67.09,46.56l.39-.05a4.3,4.3,0,0,0,.58-.13l-.18-.46,0-.07c-.4-.06-.75-.14-1.14-.2l.2.47C67,46.28,67,46.43,67.09,46.56Z"/>
   <path class="cls-1"
         d="M68.06,46.38h0a4.3,4.3,0,0,1-.58.13A4.3,4.3,0,0,0,68.06,46.38Z"/>
   <path class="cls-1" d="M66.91,46.12l-.2-.47h0Z"/>
   <polygon class="cls-1" points="67.85 45.85 67.85 45.85 67.88 45.92 67.85 45.85"/>
   <path class="cls-1"
         d="M68.29,46.34l.22-.07a3.93,3.93,0,0,0,1.31-.66h0a3.16,3.16,0,0,1-.95.71,2.78,2.78,0,0,1-.49.22,4.75,4.75,0,0,1-.74.19h0l-.25.05h-.09l0,0h0a.41.41,0,0,1,.1.09h0s0,0,0,.08a.19.19,0,0,1,0,.08,1.63,1.63,0,0,1,0,.58c0,.16,0,.33-.07.5a1.08,1.08,0,0,0,.56,0,1.43,1.43,0,0,0,.28-.07l.3-.09a1.46,1.46,0,0,1,.83-.12h0a.35.35,0,0,1,.21.17l0,.09,0,.1c0,.09,0,.18.08.27s0,.12,0,.17a.31.31,0,0,0,0,.08.37.37,0,0,0,0,.11c0-.44.14-.88.23-1.32l.09-.45.12-.52c0-.06,0-.12,0-.17l0-.17c0-.1,0-.2,0-.3l0-.27c0-.1,0-.33-.11-.4a.2.2,0,0,0-.1,0,.81.81,0,0,0-.26.09l-.11.06a3.5,3.5,0,0,1-.56.24h0a.61.61,0,0,1-.18,0,.8.8,0,0,1-.31,0h-.09a.5.5,0,0,0-.21,0,1.45,1.45,0,0,0-.26.07l-.11,0h0s-.05,0-.07,0Z"/>
   <path class="cls-1"
         d="M70,45.37l-.11.06a3.15,3.15,0,0,1-.56.24,3.5,3.5,0,0,0,.56-.24Z"/>
   <path class="cls-1"
         d="M68.78,45.73h0a.5.5,0,0,0-.21,0,1.25,1.25,0,0,0-.26.07,1.45,1.45,0,0,1,.26-.07A.5.5,0,0,1,68.78,45.73Z"/>
   <path class="cls-1" d="M70.15,47.58l.09-.45.12-.52-.12.52Z"/>
   <path class="cls-1"
         d="M67.42,48.16c0-.17,0-.34.07-.5a1.63,1.63,0,0,0,0-.58,1.62,1.62,0,0,1,0,.58c0,.16,0,.33-.07.5a1.08,1.08,0,0,0,.56,0,1.43,1.43,0,0,0,.28-.07,1.43,1.43,0,0,1-.28.07A1.08,1.08,0,0,1,67.42,48.16Z"/>
   <path class="cls-1" d="M69.92,48.91h0a.37.37,0,0,1,0-.11A.61.61,0,0,0,69.92,48.91Z"/>
   <path class="cls-1" d="M69.41,47.91h0Z"/>
   <path class="cls-1" d="M70.48,46c0,.1,0,.2,0,.3C70.45,46.17,70.47,46.07,70.48,46Z"/>
   <path class="cls-1" d="M67.36,46.83h0Z"/>
   <path class="cls-1" d="M67.46,46.92s0,0,0,.08,0-.06,0-.08Z"/>
   <path class="cls-1"
         d="M68.87,46.32a3.15,3.15,0,0,1-.49.22,4.75,4.75,0,0,1-.74.19,4.75,4.75,0,0,0,.74-.19A2.78,2.78,0,0,0,68.87,46.32Z"/>
   <path class="cls-1" d="M67.38,46.78h-.09l0,0,0,0Z"/>
   <path class="cls-1"
         d="M68.51,46.27a3.94,3.94,0,0,0,1.3-.65h0A3.93,3.93,0,0,1,68.51,46.27Z"/>
   <path class="cls-1" d="M67.63,46.73Z"/>
   <path class="cls-1"
         d="M69.72,48.27l0-.1,0,.1c0,.09,0,.18.08.27s0,.12,0,.17,0-.11,0-.17S69.75,48.36,69.72,48.27Z"/>
   <path class="cls-1" d="M68.29,46.34h0l-.18-.48s0,0,.07,0l-.07,0Z"/>
   <path class="cls-1"
         d="M73.54,48.7c.19-.31.21-.32.47-.18l0-.07-.47-.29L72,49.21l.22-1.88L71.76,47l0,.07c.25.18.25.22,0,.59l-.4.57a4.33,4.33,0,0,1-.37.51c-.09.09-.16.09-.33,0l0,.07.66.41,0-.07c-.17-.13-.22-.2-.17-.31a4.84,4.84,0,0,1,.31-.51l.51-.77h0l-.26,1.88.07.05,1.63-1.09h0l-.69,1.15c-.19.32-.2.32-.45.19l0,.07.05,0h.6l.08-.14Z"/>
   <path class="cls-1"
         d="M74.58,49.67a.45.45,0,0,0-.18-.21,1.25,1.25,0,0,0-.56-.07c-.09,0-.15,0-.17.06s0,.14.06.17a.08.08,0,0,0,.1,0c.1-.1.24-.19.38-.1a.26.26,0,0,1,.07.37h.29A.25.25,0,0,0,74.58,49.67Z"/>
   <polygon class="cls-1"
            points="75.56 49.72 75.26 49.79 75.21 49.88 75.51 49.88 75.6 49.74 75.56 49.72"/>
   <path class="cls-1"
         d="M76.26,49.71l0,.06a.54.54,0,0,1,.13.11h.39A4.49,4.49,0,0,1,76.26,49.71Z"/>
   <path class="cls-2"
         d="M117.93,57.9l-2.77-4.17a.48.48,0,0,1-.08-.35l.79-5a.49.49,0,0,1,.39-.41l7.2-1.57a11.73,11.73,0,0,0-7.7-2.21,10.66,10.66,0,0,0-4.19,2.26c-1.21,1.6-1.8,4.19-1.59,7.24.24,3.52,3,6,4.3,7.08a6.81,6.81,0,0,0,5,.18,9.83,9.83,0,0,0,5.38-4.42l-6.23,1.53A.5.5,0,0,1,117.93,57.9Z"/>
   <path class="cls-2"
         d="M40.16,47.93c-.49-.38-.79-.65-.83-.68s-3.48-3.08-6.79-1.77c-.18.08-4.27,1.74-6.16,5.23l7.2-1.56a.5.5,0,0,1,.52.21l2.78,4.17a.56.56,0,0,1,.07.36l-.79,4.94a.49.49,0,0,1-.39.41l-7.2,1.57A11.61,11.61,0,0,0,36.27,63,10.24,10.24,0,0,0,42,59.2,10.29,10.29,0,0,0,40.16,47.93Z"/>
   <path class="cls-4"
         d="M125.46,55.36l-6.89,1.7-2.47-3.72.7-4.42,7.85-1.7a.51.51,0,0,0,.38-.36.48.48,0,0,0-.14-.49,12.34,12.34,0,0,0-9.35-3.1,10.51,10.51,0,0,0-3.36,1.52,11.35,11.35,0,0,0-3,2.83,7.93,7.93,0,0,1-4.74,2.26h-23L57.1,34.9c-3.46-2.13-4.66-4.82-4.83-6,0-2.92-1.93-6.16-3.35-7.53A13.15,13.15,0,0,0,38.73,19a.5.5,0,0,0-.38.35.52.52,0,0,0,.14.5l6.18,6-1.84,4.44-4.36,2-6.19-6a.5.5,0,0,0-.83.28c-.89,5,2.36,9.52,2.74,10,2.65,3.56,7.94,2.63,8.17,2.58a16.56,16.56,0,0,1,7.7.52l16.56,10.2H46.49A15.15,15.15,0,0,1,40,46.51c-.16-.15-3.94-3.51-7.84-2-.54.22-5.39,2.26-7.13,6.68a.49.49,0,0,0,.57.67l7.85-1.7,2.47,3.72-.7,4.42-7.85,1.71a.5.5,0,0,0-.38.35.49.49,0,0,0,.14.5,12.67,12.67,0,0,0,8.29,3.18A5.86,5.86,0,0,0,36.49,64c1.82-.4,5-2,6.38-4.36.67-.83,3-2.42,6.79-2.42H78.55l21,12.94a2,2,0,0,1,1,1.7,9.27,9.27,0,0,0,5.61,8.51,8.9,8.9,0,0,0,3.58.74A9.33,9.33,0,0,0,117,77.6a9.19,9.19,0,0,0,1.83-7.35,9.24,9.24,0,0,0-13.26-6.61,2,2,0,0,1-2-.09L93.37,57.23h9.13c4.62-.15,9.51,3.52,9.57,3.56s3.76,2.68,7.69,1.11A10.43,10.43,0,0,0,126.05,56a.5.5,0,0,0-.09-.51A.51.51,0,0,0,125.46,55.36ZM42.17,38.18c-.05,0-4.89.87-7.18-2.2-.13-.18-3-4-2.68-8.29L38,33.18a.51.51,0,0,0,.56.1L43.43,31a.49.49,0,0,0,.25-.26l2-4.93a.51.51,0,0,0-.12-.56L39.9,19.8a12.47,12.47,0,0,1,8.33,2.3,11,11,0,0,1,3,6.58,11,11,0,0,1-8,9.35C42.62,38.1,42.22,38.17,42.17,38.18Zm8.33.61a14.91,14.91,0,0,0-5.22-.87H45A11.34,11.34,0,0,0,51.52,30a11.59,11.59,0,0,0,5,5.76l23,14.13h-11ZM36.27,63a11.61,11.61,0,0,1-7.7-2.21l7.2-1.57a.49.49,0,0,0,.39-.41L37,53.89a.56.56,0,0,0-.07-.36L34.1,49.36a.5.5,0,0,0-.52-.21l-7.2,1.56c1.89-3.49,6-5.15,6.16-5.23,3.31-1.31,6.76,1.74,6.79,1.77s.34.3.83.68A10.29,10.29,0,0,1,42,59.2,10.24,10.24,0,0,1,36.27,63Zm66.85,1.39a3.05,3.05,0,0,0,2.93.13,8.22,8.22,0,0,1,11.82,5.89A8.11,8.11,0,0,1,116.24,77a8.23,8.23,0,0,1-14.71-5.11,3,3,0,0,0-1.44-2.56L80.45,57.23h11Zm-.64-8.18H82.85a.24.24,0,0,1-.12,0H49.66a10.77,10.77,0,0,0-6.84,2.11,10.64,10.64,0,0,0-1.26-9.43,14.45,14.45,0,0,0,4.83,2H104.5A8.9,8.9,0,0,0,110,48.22l.25-.32a13.34,13.34,0,0,0-.73,5.87,9.8,9.8,0,0,0,2.86,6C111.14,58.91,106.76,56.08,102.48,56.23ZM119.32,61a6.81,6.81,0,0,1-5-.18c-1.35-1-4.06-3.56-4.3-7.08-.21-3.05.38-5.64,1.59-7.24a10.66,10.66,0,0,1,4.19-2.26,11.73,11.73,0,0,1,7.7,2.21L116.26,48a.49.49,0,0,0-.39.41l-.79,5a.48.48,0,0,0,.08.35l2.77,4.17a.5.5,0,0,0,.54.21l6.23-1.53A9.83,9.83,0,0,1,119.32,61Z"/>
   <path class="cls-2"
         d="M110.21,47.9l-.25.32a8.9,8.9,0,0,1-5.46,2.66H46.39a14.45,14.45,0,0,1-4.83-2,10.64,10.64,0,0,1,1.26,9.43,10.77,10.77,0,0,1,6.84-2.11H82.73a.24.24,0,0,0,.12,0h19.63c4.28-.15,8.66,2.68,9.86,3.52a9.8,9.8,0,0,1-2.86-6A13.34,13.34,0,0,1,110.21,47.9ZM94.55,55.58H56.27a2,2,0,0,1,0-4.06H68.41s0,0,0,0h26.1a2,2,0,0,1,0,4.07Z"/>
   <path class="cls-4"
         d="M104,75l.41,1.62a.51.51,0,0,0,.34.36l1.6.49,1.16,1.2a.49.49,0,0,0,.47.14l1.63-.36,1.61.46.14,0a.51.51,0,0,0,.34-.14l1.23-1.13,1.62-.41a.49.49,0,0,0,.35-.33l.5-1.6,1.2-1.17a.47.47,0,0,0,.14-.46l-.36-1.64.46-1.61a.51.51,0,0,0-.12-.47l-1.13-1.23-.41-1.62a.5.5,0,0,0-.34-.36l-1.59-.5-1.17-1.2a.49.49,0,0,0-.47-.14l-1.63.37-1.61-.46a.48.48,0,0,0-.47.11l-1.23,1.14-1.63.4a.52.52,0,0,0-.35.34l-.5,1.6L103,69.6a.49.49,0,0,0-.14.47l.37,1.63-.46,1.61a.5.5,0,0,0,.11.48Zm-.11-4.9L105,69.07a.57.57,0,0,0,.13-.21l.45-1.46L107,67a.51.51,0,0,0,.22-.11l1.12-1,1.46.41a.43.43,0,0,0,.25,0l1.48-.33,1.06,1.09a.57.57,0,0,0,.21.13l1.45.45.37,1.47a.43.43,0,0,0,.12.22l1,1.12-.42,1.46a.7.7,0,0,0,0,.25l.34,1.48-1.1,1.06a.55.55,0,0,0-.12.21L114,76.37l-1.47.37a.48.48,0,0,0-.22.12l-1.12,1-1.46-.42-.13,0h-.11L108,77.8l-1-1.09a.5.5,0,0,0-.22-.13l-1.45-.46-.37-1.47a.57.57,0,0,0-.11-.22l-1-1.12.41-1.46a.39.39,0,0,0,0-.24Z"/>
   <path class="cls-3"
         d="M94.55,51.51H68.45a.67.67,0,0,1,.26.27,3.86,3.86,0,0,1,.29.68c.08.22.15.45.23.67.21.58.4,1.13.65,1.68a2.82,2.82,0,0,1-.29-.25l-.21-.19-.18-.11c-.37-.18-.68.21-.93.5a3.54,3.54,0,0,1-.41.45,1.11,1.11,0,0,1-.49.27c-.07-.16-.14-.31-.2-.47s-.21-.52-.42-.61a.43.43,0,0,0-.21,0,6.34,6.34,0,0,0,.8-.78A3.59,3.59,0,0,0,68,52.34c0-.12,0-.2,0-.25a4.58,4.58,0,0,1-.91,1.39l-.41-.32.06-.08a2.33,2.33,0,0,1,.26-.28.77.77,0,0,1,.18-.1.38.38,0,0,0,.1,0,.85.85,0,0,0,.25-.17l.12-.14a3.87,3.87,0,0,0,.35-.51,1.12,1.12,0,0,1,.24-.32l0,0H56.27a2,2,0,0,0,0,4.06H94.55a2,2,0,0,0,0-4.07Zm-29.1,2.2c.37-.15.71-.26,1.08-.42l.46.34a5.27,5.27,0,0,1-.74.66Zm7.74.7h-.88v-.08c.28,0,.29,0,.29-.4V52.6h0l-.13.28-.21.46-.47,1h-.08l-.76-1.73h0l0,.93a2.7,2.7,0,0,0,0,.59c0,.12.09.16.31.17v.08h-.78v-.08c.18,0,.25,0,.28-.17a4.39,4.39,0,0,0,0-.63l0-.69c0-.3,0-.41-.1-.46l0,0-.18,0v-.08H71l.21.46L71.82,54l.31-.68.21-.46.21-.45,0-.11h.55v.08c-.23,0-.29,0-.3.21v1.38c0,.37,0,.38.31.4Zm1.1,0a.26.26,0,0,1-.18-.22l-.21.13a.42.42,0,0,1-.18.09.4.4,0,0,1-.4-.38s0,0,0,0a.35.35,0,0,1,.23-.29l.16-.06a2,2,0,0,0,.38-.17v-.11s0,0,0-.09a.24.24,0,0,0-.25-.22s0,0-.07,0a.33.33,0,0,0-.19.25.09.09,0,0,1-.08.06s-.14-.06-.14-.11,0-.09.11-.15l.2-.12a1.58,1.58,0,0,1,.31-.11.45.45,0,0,1,.26.08.39.39,0,0,1,.13.33v.74c0,.12,0,.18.09.18a.39.39,0,0,0,.14,0l0,.08Zm1,0-.09,0c-.22,0-.33-.14-.33-.4V53.1h-.24l0,0,.1-.1h.16v-.2l.21-.22h0V53h.38a.1.1,0,0,1,0,.13h-.36V54c0,.26.12.31.21.31a.37.37,0,0,0,.19-.07l0,.08Zm2,0h-.7v-.08c.13,0,.18,0,.2-.07a.26.26,0,0,0,0-.15v-.6c0-.24-.09-.39-.33-.39a.42.42,0,0,0-.34.15v.84c0,.19,0,.2.22.22v.08h-.71v-.08h0c.16,0,.18,0,.18-.22V52.46c0-.2,0-.2-.24-.22v-.06l.23,0,.12,0,.15,0v1.11a.74.74,0,0,1,.47-.24.43.43,0,0,1,.45.48v.7c0,.19,0,.2.22.22Zm2.3-1.54c-.07.25-.21.7-.38,1.23a.29.29,0,0,0,0,.09c0,.08,0,.16-.08.24h-.09l-.21-.58a.61.61,0,0,1,0-.12l0-.07L78.53,53l0-.12,0-.09h0l-.06.17-.07.21-.41,1.23h-.09l-.58-1.78s0,0,0,0c-.06-.18-.11-.23-.22-.25h-.08v-.08h.81v.08h-.11c-.14,0-.16,0-.12.19L78,54h0l.19-.6.26-.82.08-.24h.07l.15.41,0,.12.12.31.16.46.13.36h0c.1-.29.22-.72.3-1a1.24,1.24,0,0,0,0-.16c0-.06,0-.12,0-.16,0-.19,0-.23-.12-.25h-.09v-.08H80v.08c-.22,0-.24,0-.35.34a.22.22,0,0,0,0,.08A.76.76,0,0,1,79.62,52.87Zm1.5.89,0,.13a.7.7,0,0,1-.57.54l-.1,0a.58.58,0,0,1-.19,0,.64.64,0,0,1-.4-.27.61.61,0,0,1-.11-.23.58.58,0,0,1,0-.18.76.76,0,0,1,.28-.62A.39.39,0,0,1,80.1,53a.61.61,0,0,1,.31-.09.71.71,0,0,1,.72.73S81.12,53.73,81.12,53.76Zm1.12-.51a.07.07,0,0,1-.08,0,.23.23,0,0,0-.15-.07c-.08,0-.16.06-.25.24v.69c0,.15,0,.19.13.21l.15,0v.07h-.76v-.07c.21,0,.22,0,.22-.23v-.76c0-.2,0-.2-.22-.23v-.06a3.13,3.13,0,0,0,.48-.13v.34h0c.08-.13.24-.33.4-.33a.17.17,0,0,1,.17.15A.17.17,0,0,1,82.24,53.25ZM84,54.41h-.42l-.26-.32L83,53.77c0-.07-.08-.07-.1-.07h-.06v.4c0,.19,0,.21.24.23v.07h-.75v-.07c.24,0,.25,0,.25-.23V52.46c0-.2,0-.2-.23-.22v-.06a5,5,0,0,0,.49-.12v1.56a.35.35,0,0,0,.22-.12,2.59,2.59,0,0,0,.24-.33s0-.05,0-.07a0,0,0,0,0,0,0h-.09V53l.63,0V53l-.14,0a.46.46,0,0,0-.22.13l0,0c-.08.08-.13.14-.28.32.09.12.43.51.54.63s.14.14.19.14l.08,0Zm1-.32a.5.5,0,0,1-.51.36.69.69,0,0,1-.39-.12A1.49,1.49,0,0,1,84,54l.08,0c0,.19.2.4.4.4a.22.22,0,0,0,.23-.24.23.23,0,0,0,0-.14.22.22,0,0,0-.08-.09s0,0,0,0l-.11-.06h0a.78.78,0,0,1-.28-.17.34.34,0,0,1-.11-.25.44.44,0,0,1,.42-.42h.07a.7.7,0,0,1,.28.05.93.93,0,0,1,0,.21.65.65,0,0,1,0,.11l-.08,0c-.1-.22-.2-.29-.33-.29a.21.21,0,0,0-.22.22c0,.14.14.23.29.29s.4.23.4.45C85,54,85,54.06,85,54.09Zm.33-.7a.22.22,0,0,1-.22-.22A.21.21,0,0,1,85.3,53a.21.21,0,0,1,.21.21A.21.21,0,0,1,85.3,53.39Z"/>
   <path class="cls-3" d="M85.25,53.09v.06h0s.08,0,.08,0,0,0-.06,0Z"/>
   <path class="cls-3"
         d="M85.3,53l0,0s-.06,0-.08,0h0a.18.18,0,0,0,0,.12.19.19,0,0,0,.19.19.18.18,0,0,0,.16-.14s0,0,0,0A.19.19,0,0,0,85.3,53Zm.1.3h0l-.07-.11h0v.11h0v-.24h.11a.07.07,0,0,1,.08.07s0,.06-.07.06Z"/>
   <path class="cls-3"
         d="M80.37,53a.35.35,0,0,0-.21.1.62.62,0,0,0-.18.48A1.28,1.28,0,0,0,80,54a.53.53,0,0,0,.25.34.3.3,0,0,0,.16.05.28.28,0,0,0,.13,0,.43.43,0,0,0,.23-.35,1.52,1.52,0,0,0,0-.23,1.09,1.09,0,0,0,0-.26C80.75,53.23,80.6,53,80.37,53Z"/>
   <path class="cls-1" d="M68.41,51.5h0S68.42,51.49,68.41,51.5Z"/>
   <path class="cls-1"
         d="M68.07,51.85a3.87,3.87,0,0,1-.35.51l-.12.14a.85.85,0,0,1-.25.17.38.38,0,0,1-.1,0,.77.77,0,0,0-.18.1,2.33,2.33,0,0,0-.26.28l-.06.08.41.32a4.58,4.58,0,0,0,.91-1.39,1.19,1.19,0,0,1,0,.25,3.59,3.59,0,0,1-.68,1.26,6.34,6.34,0,0,1-.8.78.43.43,0,0,1,.21,0c.21.09.32.39.42.61s.13.31.2.47a1.11,1.11,0,0,0,.49-.27,3.54,3.54,0,0,0,.41-.45c.25-.29.56-.68.93-.5l.18.11.21.19a2.82,2.82,0,0,0,.29.25c-.25-.55-.44-1.1-.65-1.68-.08-.22-.15-.45-.23-.67a3.86,3.86,0,0,0-.29-.68.67.67,0,0,0-.26-.27h-.09l0,0A1.12,1.12,0,0,0,68.07,51.85Z"/>
   <path class="cls-1"
         d="M67,53.63l-.46-.34c-.37.16-.71.27-1.08.42l.8.58A5.27,5.27,0,0,0,67,53.63Z"/>
   <path class="cls-1"
         d="M72.88,53.93V52.55c0-.18.07-.2.3-.21v-.08H72.6l0,.11-.21.45-.21.46-.31.68-.59-1.24L71,52.26h-.55v.08l.18,0,0,0c.1,0,.12.16.1.46l0,.69a4.39,4.39,0,0,1,0,.63c0,.12-.1.16-.28.17v.08h.78v-.08c-.22,0-.3,0-.31-.17a2.7,2.7,0,0,1,0-.59l0-.93h0l.76,1.73h.08l.47-1,.21-.46.13-.28h0v1.33c0,.37,0,.38-.29.4v.08h.88v-.08C72.9,54.31,72.89,54.3,72.88,53.93Z"/>
   <path class="cls-1"
         d="M74.45,54.26s-.09-.06-.09-.18v-.74a.39.39,0,0,0-.13-.33.45.45,0,0,0-.26-.08,1.58,1.58,0,0,0-.31.11l-.2.12c-.07.06-.11.1-.11.15s.09.11.14.11a.09.09,0,0,0,.08-.06.33.33,0,0,1,.19-.25s0,0,.07,0a.24.24,0,0,1,.25.22s0,.05,0,.09v.11a2,2,0,0,1-.38.17l-.16.06a.35.35,0,0,0-.23.29s0,0,0,0a.4.4,0,0,0,.4.38.42.42,0,0,0,.18-.09l.21-.13a.26.26,0,0,0,.18.22l.33-.16,0-.08A.39.39,0,0,1,74.45,54.26Zm-.34-.12a.61.61,0,0,1-.29.13A.24.24,0,0,1,73.6,54a.27.27,0,0,1,.17-.25l.06,0,.28-.12Z"/>
   <path class="cls-3"
         d="M73.77,53.76a.27.27,0,0,0-.17.25.24.24,0,0,0,.22.26.61.61,0,0,0,.29-.13v-.53l-.28.12Z"/>
   <path class="cls-1"
         d="M75.35,54.28c-.09,0-.21-.05-.21-.31V53.1h.36a.1.1,0,0,0,0-.13h-.38v-.42h0l-.21.22V53h-.16l-.1.1,0,0h.24v.95c0,.26.11.4.33.4l.09,0,.28-.13,0-.08A.37.37,0,0,1,75.35,54.28Z"/>
   <path class="cls-1"
         d="M77.1,54.11v-.7a.43.43,0,0,0-.45-.48.74.74,0,0,0-.47.24V52.06l-.15,0-.12,0-.23,0v.06c.23,0,.24,0,.24.22v1.65c0,.17,0,.2-.18.22h0v.08h.71v-.08c-.21,0-.22,0-.22-.22v-.84a.42.42,0,0,1,.34-.15c.24,0,.33.15.33.39v.6a.26.26,0,0,1,0,.15c0,.05-.07.06-.2.07v.08h.7v-.08C77.12,54.31,77.1,54.3,77.1,54.11Z"/>
   <path class="cls-1"
         d="M80,52.34v-.08h-.7v.08h.09c.15,0,.17.06.12.25,0,0,0,.1,0,.16a1.24,1.24,0,0,1,0,.16c-.08.31-.2.74-.3,1h0L79,53.59l-.16-.46-.12-.31,0-.12-.15-.41h-.07l-.08.24-.26.82L78,54h0l-.45-1.41c0-.14,0-.17.12-.19h.11v-.08h-.81v.08H77c.11,0,.16.07.22.25,0,0,0,0,0,0l.58,1.78h.09l.41-1.23.07-.21.06-.17h0l0,.09,0,.12.24.64,0,.07a.61.61,0,0,0,0,.12l.21.58h.09c0-.08,0-.16.08-.24a.29.29,0,0,1,0-.09c.17-.53.31-1,.38-1.23a.76.76,0,0,0,0-.11.22.22,0,0,1,0-.08C79.8,52.38,79.82,52.36,80,52.34Z"/>
   <path class="cls-1"
         d="M80.41,52.94a.61.61,0,0,0-.31.09.39.39,0,0,0-.14.08.76.76,0,0,0-.28.62.58.58,0,0,0,0,.18.61.61,0,0,0,.11.23.64.64,0,0,0,.4.27.58.58,0,0,0,.19,0l.1,0a.7.7,0,0,0,.57-.54l0-.13s0-.06,0-.09A.71.71,0,0,0,80.41,52.94Zm.4,1a.43.43,0,0,1-.23.35.28.28,0,0,1-.13,0,.3.3,0,0,1-.16-.05A.53.53,0,0,1,80,54a1.28,1.28,0,0,1-.06-.35.62.62,0,0,1,.18-.48.35.35,0,0,1,.21-.1c.23,0,.38.2.43.45a1.09,1.09,0,0,1,0,.26A1.52,1.52,0,0,1,80.81,54Z"/>
   <path class="cls-1"
         d="M82.17,52.94c-.16,0-.32.2-.4.33h0v-.34a3.13,3.13,0,0,1-.48.13v.06c.22,0,.22,0,.22.23v.76c0,.19,0,.21-.22.23v.07H82v-.07l-.15,0c-.12,0-.13-.06-.13-.21v-.69c.09-.18.17-.24.25-.24a.23.23,0,0,1,.15.07.07.07,0,0,0,.08,0,.17.17,0,0,0,.1-.16A.17.17,0,0,0,82.17,52.94Z"/>
   <path class="cls-1"
         d="M83.71,54.18c-.11-.12-.45-.51-.54-.63.15-.18.2-.24.28-.32l0,0a.46.46,0,0,1,.22-.13l.14,0V53l-.63,0v.07h.09a0,0,0,0,1,0,0s0,0,0,.07a2.59,2.59,0,0,1-.24.33.35.35,0,0,1-.22.12V52.06a5,5,0,0,1-.49.12v.06c.23,0,.23,0,.23.22v1.65c0,.19,0,.21-.25.23v.07h.75v-.07c-.22,0-.24,0-.24-.23v-.4h.06s0,0,.1.07l.27.32.26.32H84v-.07l-.08,0C83.85,54.32,83.8,54.27,83.71,54.18Z"/>
   <path class="cls-1"
         d="M84.59,53.55c-.15-.06-.29-.15-.29-.29a.21.21,0,0,1,.22-.22c.13,0,.23.07.33.29l.08,0a.65.65,0,0,0,0-.11.93.93,0,0,0,0-.21.7.7,0,0,0-.28-.05h-.07a.44.44,0,0,0-.42.42.34.34,0,0,0,.11.25.78.78,0,0,0,.28.17h0l.11.06s0,0,0,0a.22.22,0,0,1,.08.09.23.23,0,0,1,0,.14.22.22,0,0,1-.23.24c-.2,0-.35-.21-.4-.4L84,54a1.49,1.49,0,0,0,0,.36.69.69,0,0,0,.39.12.5.5,0,0,0,.51-.36S85,54,85,54C85,53.78,84.83,53.65,84.59,53.55Z"/>
   <path class="cls-1"
         d="M85.32,53.05h-.11v.24h0v-.11h0l.07.11h0l-.07-.11s.07,0,.07-.06A.07.07,0,0,0,85.32,53.05Zm0,.1h0v-.06h.06s.06,0,.06,0S85.32,53.15,85.29,53.15Z"/>
   <path class="cls-1"
         d="M85.3,53a.21.21,0,0,0-.22.21.22.22,0,1,0,.43,0A.21.21,0,0,0,85.3,53Zm.18.21s0,0,0,0a.18.18,0,0,1-.16.14.19.19,0,0,1-.19-.19.17.17,0,0,1,0-.12h0s0,0,.08,0l0,0h0a.19.19,0,0,1,.18.18Z"/>
   <path class="cls-1" d="M85.16,53.05h0Z"/>
   <path class="cls-1" d="M85.3,53l0,0,0,0Z"/>
   <path class="cls-1" d="M85.48,53.17h0s0,0,0,0S85.48,53.19,85.48,53.17Z"/>
</svg>