<?xml version="1.0" encoding="utf-8"?>
<!-- Copyright 2020-2021 The MathWorks, Inc. -->
<svg xmlns="http://www.w3.org/2000/svg"
     xmlns:d="https://www.mathworks.com/blockgraphics"
     d:options="PreserveAspect:On;Resize:FitToBlock;Frame:Adaptive;Rotate:Off"
     id="Layer_1"
     version="1.1"
     viewBox="-5 -10 50 50"
     height="80"
     width="150">
   <defs>
      <style>.cls-1{isolation:isolate;}.cls-2,.cls-6{fill:#333;}.cls-3{fill:#ccc;}.cls-4,.cls-7{fill:#fff;}.cls-5{fill:#7d7d7d;}.cls-6{opacity:0.25;mix-blend-mode:multiply;}.cls-7{stroke:#333;stroke-linecap:round;stroke-linejoin:round;}.cls-8{font-size:6.5px;font-family:Helvetica;}</style>
   </defs>
   <title>readImage</title>
   <g class="cls-1">
      <g data-name="Layer 1" id="Layer_1">
         <path class="cls-2" d="M27.33,3V23H1V3H27.33m1-1H0V24H28.33V2Z"/>
         <rect class="cls-3" height="19" width="25.33" x="1.5" y="3.5"/>
         <path class="cls-4" d="M26.33,4V22H2V4H26.33m1-1H1V23H27.33V3Z"/>
         <circle class="cls-4" cx="21.99" cy="8.27" r="3.25"/>
         <polygon class="cls-5"
                  points="23.46 14.72 21.25 16.91 12.57 9.11 9.48 12.08 19.88 22 26.32 22 26.32 16.18 23.46 14.72"/>
         <polygon class="cls-5" points="9.48 12.08 3.59 6.23 2 8.08 2 22 20.21 22 9.48 12.08"/>
         <path class="cls-6"
               d="M24.44,19.88A6.57,6.57,0,0,0,18.36,24H30.53A6.57,6.57,0,0,0,24.44,19.88Z"/>
         <polygon class="cls-2" points="30.53 24 30.52 24 30.53 24.01 30.53 24"/>
         <circle class="cls-7" cx="25.44" cy="25.44" r="6.06"/>
         <ellipse class="cls-7" cx="25.44" cy="25.47" rx="4.52" ry="2.58"/>
         <circle class="cls-2" cx="25.44" cy="25.08" r="2.24"/>
         <circle class="cls-4" cx="26.3" cy="24.19" r="0.56"/>
         <circle class="cls-4" cx="27.07" cy="24.97" r="0.22"/>
         <text class="cls-8" transform="translate(8.91 0.55)">ROS</text>
      </g>
   </g>
</svg>
