<?xml version="1.0" encoding="utf-8"?>
<!-- Copyright 2020 The MathWorks, Inc. -->
<svg xmlns="http://www.w3.org/2000/svg"
     xmlns:d="http://www.mathworks.com/blockgraphics"
     d:options="PreserveAspect:On;Resize:FitToBlock;Frame:Adaptive;Rotate:Off"
     id="Layer_1"
     version="1.1"
     viewBox="-10 -10 50 50"
     height="80"
     width="150">
   <defs>
      <style>.cls-1{isolation:isolate;}.cls-2{fill:#bfbfbf;}.cls-3,.cls-5{fill:#333;}.cls-4{fill:#fff;}.cls-5{font-size:6.5px;font-family:Helvetica;}.cls-6{opacity:0.25;mix-blend-mode:multiply;}</style>
   </defs>
   <title>currentTimeBlockROS v3</title>
   <g class="cls-1">
      <g data-name="Layer 1" id="Layer_1">
         <path class="cls-2"
               d="M5.78,25.56v-.09a3.7,3.7,0,0,0,3.47-2.36,3.2,3.2,0,0,0,.18-.74h5.14a3.2,3.2,0,0,0,.18.74,3.62,3.62,0,0,0,3.44,2.33v.12Z"/>
         <path class="cls-3"
               d="M14.16,22.87a3.17,3.17,0,0,0,.12.41,4.07,4.07,0,0,0,1.3,1.78H8.42a4.07,4.07,0,0,0,1.3-1.78,3.17,3.17,0,0,0,.12-.41h4.32m.88-1H9a3.29,3.29,0,0,1-.18,1.07,3.13,3.13,0,0,1-3,2,.53.53,0,0,0-.53.53v.59H18.72v-.59a.53.53,0,0,0-.53-.53h0a3.13,3.13,0,0,1-3-2A3.29,3.29,0,0,1,15,21.87Z"/>
         <rect class="cls-4" height="14.07" rx="1.5" width="23" x="0.5" y="8.28"/>
         <path class="cls-3"
               d="M22,8.78a1,1,0,0,1,1,1V20.85a1,1,0,0,1-1,1H2a1,1,0,0,1-1-1V9.78a1,1,0,0,1,1-1H22m0-1H2a2,2,0,0,0-2,2V20.85a2,2,0,0,0,2,2H22a2,2,0,0,0,2-2V9.78a2,2,0,0,0-2-2Z"/>
         <text class="cls-5" transform="translate(8.91 4.72)">ROS</text>
         <g class="cls-6">
            <path class="cls-3"
                  d="M27.5,25.56V22.38H18.68a4.77,4.77,0,0,1,9.41,1.11,4.93,4.93,0,0,1-.47,2.07Z"/>
            <path class="cls-3"
                  d="M23.32,19.23a4.28,4.28,0,0,1,3.95,2.65h-7.9a4.26,4.26,0,0,1,3.95-2.65m0-1a5.26,5.26,0,0,0-5.23,4.65H27v3.18h.92a5.26,5.26,0,0,0-4.6-7.83Z"/>
         </g>
         <circle class="cls-4" cx="25.5" cy="23.5" r="6"/>
         <path class="cls-3"
               d="M25.5,18A5.5,5.5,0,1,1,20,23.5,5.51,5.51,0,0,1,25.5,18m0-1A6.5,6.5,0,1,0,32,23.5,6.5,6.5,0,0,0,25.5,17Z"/>
         <path class="cls-4"
               d="M25.5,24A.47.47,0,0,1,25,23.5a.46.46,0,0,1,.23-.39L25.5,23l.24.15a.46.46,0,0,1,.23.39h0a.22.22,0,0,0,0,.06l0,.26,0,0-.28.11Z"/>
         <path class="cls-3"
               d="M26,20.43H25v2.25a1,1,0,0,0,.5,1.79.81.81,0,0,0,.35-.07l3,2.55.65-.76-3-2.59a.3.3,0,0,0,0-.1,1,1,0,0,0-.47-.82V20.43Z"/>
      </g>
   </g>
</svg>
