<?xml version="1.0" encoding="utf-8"?>
<!-- Copyright 2020-2021 The MathWorks, Inc. -->
<svg xmlns="http://www.w3.org/2000/svg"
     xmlns:d="https://www.mathworks.com/blockgraphics"
     d:options="PreserveAspect:On;Resize:FitToBlock;Frame:Adaptive;Rotate:Off"
     data-name="Layer 1"
     version="1.1"
     viewBox="20 -6 120 110"
     height="60"
     width="110">
   <defs>
      <style>.cls-1{fill:none;stroke:#333;stroke-miterlimit:10;stroke-width:2px;}.cls-2{fill:#333;}.cls-3{fill:#fff;}.cls-4{fill:#bfbfbf;}</style>
   </defs>
   <title>CallService</title>
   <path d="M104.14,31.07a5.07,5.07,0,0,1-.11,1H46.94a4.47,4.47,0,0,1,3.4-7.39,4.53,4.53,0,0,1,.91.09,6.31,6.31,0,0,1-.08-.76,6.31,6.31,0,0,1,9.22-5.65,10.73,10.73,0,0,1,20.1-7.25A4.44,4.44,0,0,1,81.71,11a4.8,4.8,0,0,1,4.67,3.73,10.51,10.51,0,0,1,2-.21A10.77,10.77,0,0,1,99.18,25.25c0,.3-.06.58-.08.87h.08A5,5,0,0,1,104.14,31.07Z"
         fill="#fff"/>
   <path d="M100.18,25.19A11.78,11.78,0,0,0,88.41,13.48a10.13,10.13,0,0,0-1.33.09A5.78,5.78,0,0,0,81.71,10,5.19,5.19,0,0,0,81,10,11.65,11.65,0,0,0,70.8,4,11.78,11.78,0,0,0,59,15.77a10.09,10.09,0,0,0,.06,1.09,6.94,6.94,0,0,0-1.57-.18,7.36,7.36,0,0,0-7.34,7,5.47,5.47,0,0,0-4,9,1,1,0,0,0,.76.35H67.5v7.24H65l3.45,6H55.68a1,1,0,0,0-1,1V68.57a1,1,0,0,0,1,1H69.59a.88.88,0,0,1,0,.15,5.29,5.29,0,0,1-5,3.39.9.9,0,0,0-.91.9v1H86.39V74a.9.9,0,0,0-.91-.9,5.61,5.61,0,0,1-3.06-.91,5,5,0,0,1-2-2.48.88.88,0,0,1,0-.15H94.32a1,1,0,0,0,1-1V47.31a1,1,0,0,0-1-1H82.5V39.15H85l-3.49-6-3.49,6H80.5v7.16h-12l3.45-6H69.5V33.1H104a1,1,0,0,0,1-.8,5.78,5.78,0,0,0,.13-1.23A6,6,0,0,0,100.18,25.19ZM84.3,74H65.7a6.2,6.2,0,0,0,4.78-3.94,4,4,0,0,0,.15-.49h8.74a4,4,0,0,0,.15.49A6.2,6.2,0,0,0,84.3,74Zm10-26.69V68.57H55.68V47.31ZM104,32.1H46.94a4.47,4.47,0,0,1,3.4-7.39,4.53,4.53,0,0,1,.91.09,6.31,6.31,0,0,1-.08-.76,6.31,6.31,0,0,1,9.22-5.65,10.73,10.73,0,0,1,20.1-7.25A4.44,4.44,0,0,1,81.71,11a4.8,4.8,0,0,1,4.67,3.73,10.51,10.51,0,0,1,2-.21A10.77,10.77,0,0,1,99.18,25.25c0,.3-.06.58-.08.87h.08a5,5,0,0,1,5,5A5.07,5.07,0,0,1,104,32.1Z"
         fill="#333"/>
   <path d="M84.3,74H65.7a6.2,6.2,0,0,0,4.78-3.94,4,4,0,0,0,.15-.49h8.74a4,4,0,0,0,.15.49A6.2,6.2,0,0,0,84.3,74Z"
         fill="#bfbfbf"/>
   <rect fill="#fff" height="21.26" width="38.64" x="55.68" y="47.31"/>
   <path d="M62.31,20.89h4.11a4.06,4.06,0,0,1,1.68.31,2.23,2.23,0,0,1,1.25,2.21A2.51,2.51,0,0,1,69,24.78a2.36,2.36,0,0,1-.94.85,1.86,1.86,0,0,1,.8.59,2.11,2.11,0,0,1,.3,1.17l0,1.25a3.52,3.52,0,0,0,.09.8.78.78,0,0,0,.39.57v.21h-1.5a1.62,1.62,0,0,1-.1-.31c0-.13,0-.38-.06-.74L68,27.61a1.32,1.32,0,0,0-.64-1.22,2.45,2.45,0,0,0-1.07-.17H63.54v4H62.31Zm4,4.27a2.21,2.21,0,0,0,1.33-.35,1.51,1.51,0,0,0,.48-1.28,1.38,1.38,0,0,0-.68-1.36,2.07,2.07,0,0,0-1-.19H63.54v3.18Z"
         fill="#333"/>
   <path d="M78.72,22.23a5.23,5.23,0,0,1,.9,3.16,5.63,5.63,0,0,1-1,3.47,4.47,4.47,0,0,1-6.72.21A5.5,5.5,0,0,1,70.8,25.6a5.63,5.63,0,0,1,.91-3.24,3.91,3.91,0,0,1,3.46-1.72A4.09,4.09,0,0,1,78.72,22.23Zm-1.08,5.94a5.26,5.26,0,0,0,.72-2.76,4,4,0,0,0-.83-2.64,2.82,2.82,0,0,0-2.28-1,2.9,2.9,0,0,0-2.29,1,4.28,4.28,0,0,0-.89,2.93,4.35,4.35,0,0,0,.76,2.61,2.83,2.83,0,0,0,2.47,1.07A2.52,2.52,0,0,0,77.64,28.17Z"
         fill="#333"/>
   <path d="M81.88,27.21a2.66,2.66,0,0,0,.35,1.29,2.27,2.27,0,0,0,2.07.92,3.38,3.38,0,0,0,1.21-.2,1.42,1.42,0,0,0,1-1.41,1.22,1.22,0,0,0-.44-1.08,4.34,4.34,0,0,0-1.42-.56l-1.19-.28a5.17,5.17,0,0,1-1.65-.62A2,2,0,0,1,81,23.53a2.77,2.77,0,0,1,.82-2.07,3.2,3.2,0,0,1,2.32-.8,3.84,3.84,0,0,1,2.36.71,2.61,2.61,0,0,1,1,2.26H86.34A2.4,2.4,0,0,0,86,22.48a2.09,2.09,0,0,0-1.82-.73,2,2,0,0,0-1.49.47,1.5,1.5,0,0,0-.46,1.09,1.07,1.07,0,0,0,.54,1,7.07,7.07,0,0,0,1.59.51l1.23.3a3.57,3.57,0,0,1,1.37.59,2.27,2.27,0,0,1,.84,1.9,2.4,2.4,0,0,1-1.07,2.21,4.5,4.5,0,0,1-2.47.67,3.59,3.59,0,0,1-2.58-.89,3.05,3.05,0,0,1-.91-2.39Z"
         fill="#333"/>
</svg>
