<?xml version="1.0" encoding="utf-8"?>
<!-- Copyright 2020 The MathWorks, Inc. -->
<svg xmlns="http://www.w3.org/2000/svg"
     xmlns:d="http://www.mathworks.com/blockgraphics"
     d:options="PreserveAspect:On;Resize:FitToBlock;Frame:Adaptive;Rotate:Off"
     id="Layer_1"
     version="1.1"
     viewBox="-15 -10 150 80"
     height="80"
     width="150">
   <defs>
      <style>.cls-1,.cls-4{fill:none;stroke:#333;}.cls-1{stroke-miterlimit:10;stroke-width:2px;}.cls-2,.cls-5{fill:#333;}.cls-3{fill:#fff;}.cls-4{stroke-linecap:round;stroke-linejoin:round;}.cls-5{font-size:9px;font-family:Helvetica, Helvetica;}</style>
   </defs>
   <title>Publish ROS_031519</title>
   <line class="cls-1" x1="26.07" x2="45.98" y1="30.01" y2="30.01"/>
   <polygon class="cls-2" points="44.67 34.5 52.44 30.01 44.67 25.52 44.67 34.5"/>
   <rect class="cls-3" height="16.4" rx="0.5" ry="0.5" width="26.48" x="12.78" y="21.87"/>
   <path class="cls-2"
         d="M38.76,22.37v15.4H13.28V22.37H38.76m0-1H13.28a1,1,0,0,0-1,1v15.4a1,1,0,0,0,1,1H38.76a1,1,0,0,0,1-1V22.37a1,1,0,0,0-1-1Z"/>
   <polyline class="cls-4" points="38.94 22.08 26.02 33.22 13.1 22.08"/>
   <line class="cls-4" x1="22.31" x2="13.1" y1="30" y2="37.94"/>
   <line class="cls-4" x1="38.94" x2="29.82" y1="37.94" y2="30.08"/>
   <path class="cls-3"
         d="M54.25,40.6a.5.5,0,0,1-.38-.18,3.83,3.83,0,0,1,2.91-6.33h.12a5.24,5.24,0,0,1,5.24-5.24,5,5,0,0,1,1.46.22,7.42,7.42,0,0,1-.09-1.14A8.54,8.54,0,0,1,72,19.4a8.45,8.45,0,0,1,7.49,4.5,3.6,3.6,0,0,1,.64-.06A4.06,4.06,0,0,1,84,26.56a8.09,8.09,0,0,1,1.16-.09A8.54,8.54,0,0,1,93.7,35c0,.06,0,.12,0,.18a4.2,4.2,0,0,1,3.7,4.16,4.24,4.24,0,0,1-.09.87.5.5,0,0,1-.49.4Z"/>
   <path class="cls-2"
         d="M72,19.9a8,8,0,0,1,7.22,4.58,3.52,3.52,0,0,1,4.4,2.65A8,8,0,0,1,93.2,35c0,.22,0,.43-.06.64h.06a3.69,3.69,0,0,1,3.62,4.47H54.25a3.33,3.33,0,0,1,2.53-5.51,3.36,3.36,0,0,1,.68.07,4.67,4.67,0,0,1-.06-.57,4.74,4.74,0,0,1,4.74-4.74,4.69,4.69,0,0,1,2.14.53A7.94,7.94,0,0,1,72,19.9m0-1a9,9,0,0,0-9,9c0,.16,0,.33,0,.5a5.44,5.44,0,0,0-.89-.07,5.74,5.74,0,0,0-5.72,5.26,4.33,4.33,0,0,0-2.93,7.14,1,1,0,0,0,.76.35H96.81a1,1,0,0,0,1-.79,4.69,4.69,0,0,0-3.6-5.57,9,9,0,0,0-9-8.77,8.31,8.31,0,0,0-.84,0,4.56,4.56,0,0,0-4.16-2.67l-.37,0A8.94,8.94,0,0,0,72,18.9Z"/>
   <text class="cls-5" transform="translate(65.42 38.16)">ROS</text>
</svg>
