<?xml version="1.0" encoding="utf-8"?>
<!-- Copyright 2020 The MathWorks, Inc. -->
<svg xmlns="http://www.w3.org/2000/svg"
     xmlns:d="http://www.mathworks.com/blockgraphics"
     d:options="PreserveAspect:On;Resize:FitToBlock;Frame:Adaptive;Rotate:Off"
     id="Layer_1"
     version="1.1"
     viewBox="-5 -5 50 50"
     height="80"
     width="150">
   <defs>
      <style>.cls-1{isolation:isolate;}.cls-2,.cls-7{fill:#fff;}.cls-3,.cls-4{fill:#333;}.cls-4{font-size:6.5px;font-family:Helvetica;}.cls-5{opacity:0.25;mix-blend-mode:multiply;}.cls-6{fill:#bfbfbf;}.cls-7{stroke:gray;}.cls-7,.cls-9{stroke-miterlimit:10;}.cls-8{fill:#4d4d4d;}.cls-9{fill:none;stroke:#4d4d4d;}</style>
   </defs>
   <title>getParametersROS</title>
   <g class="cls-1">
      <g data-name="Layer 1" id="Layer_1">
         <path class="cls-2"
               d="M1.4,18.24A.49.49,0,0,1,1,18.06,2.1,2.1,0,0,1,.5,16.68a2.14,2.14,0,0,1,2-2.13A2.82,2.82,0,0,1,5.26,12l.42,0a1.77,1.77,0,0,1,0-.23A4.44,4.44,0,0,1,10.1,7.35a4.38,4.38,0,0,1,3.8,2.18h.18a2.24,2.24,0,0,1,2,1.31l.41,0A4.43,4.43,0,0,1,21,15.12a2.29,2.29,0,0,1,1.81,2.24,2,2,0,0,1-.05.48.49.49,0,0,1-.49.4Z"/>
         <path class="cls-3"
               d="M10.1,7.85a3.91,3.91,0,0,1,3.53,2.24,1.69,1.69,0,0,1,.45-.07,1.77,1.77,0,0,1,1.71,1.36,4.42,4.42,0,0,1,.74-.07,3.93,3.93,0,0,1,3.93,3.93,2.91,2.91,0,0,1,0,.31h0a1.81,1.81,0,0,1,1.8,1.81,1.64,1.64,0,0,1,0,.38H1.4A1.63,1.63,0,0,1,2.64,15a1.24,1.24,0,0,1,.33,0,2.85,2.85,0,0,1,0-.29,2.31,2.31,0,0,1,2.32-2.31,2.29,2.29,0,0,1,1,.26,3.83,3.83,0,0,1-.13-1A3.93,3.93,0,0,1,10.1,7.85m0-1a4.94,4.94,0,0,0-4.92,4.63A3.32,3.32,0,0,0,2,14.12,2.62,2.62,0,0,0,.64,18.38a1,1,0,0,0,.76.36H22.22a1,1,0,0,0,1-.8,2.86,2.86,0,0,0,.06-.58,2.82,2.82,0,0,0-1.83-2.64,4.94,4.94,0,0,0-4.9-4.41h-.12A2.73,2.73,0,0,0,14.18,9,4.88,4.88,0,0,0,10.1,6.85Z"/>
         <text class="cls-4" transform="translate(8.91 4.72)">ROS</text>
         <g class="cls-5">
            <path class="cls-3" d="M7.5,18.22V16.9a1.5,1.5,0,0,1,1-1.42v2.74Z"/>
            <path class="cls-3" d="M8,16.8v.92H8V16.8m1-1.91H9a2,2,0,0,0-2,2v1.82H9V14.89Z"/>
         </g>
         <path class="cls-6"
               d="M13.78,31.56v-.09a3.7,3.7,0,0,0,3.47-2.36,3.2,3.2,0,0,0,.18-.74h5.14a3.2,3.2,0,0,0,.18.74,3.62,3.62,0,0,0,3.44,2.33v.12Z"/>
         <path class="cls-3"
               d="M22.16,28.87a3.17,3.17,0,0,0,.12.41,4.07,4.07,0,0,0,1.3,1.78H16.42a4.07,4.07,0,0,0,1.3-1.78,3.17,3.17,0,0,0,.12-.41h4.32m.88-1H17a3.29,3.29,0,0,1-.18,1.07,3.13,3.13,0,0,1-3,2,.53.53,0,0,0-.53.53v.59H26.72v-.59a.53.53,0,0,0-.53-.53h0a3.13,3.13,0,0,1-3-2A3.29,3.29,0,0,1,23,27.87Z"/>
         <rect class="cls-2" height="14.07" rx="1.5" width="23" x="8.5" y="14.28"/>
         <path class="cls-3"
               d="M30,14.78a1,1,0,0,1,1,1V26.85a1,1,0,0,1-1,1H10a1,1,0,0,1-1-1V15.78a1,1,0,0,1,1-1H30m0-1H10a2,2,0,0,0-2,2V26.85a2,2,0,0,0,2,2H30a2,2,0,0,0,2-2V15.78a2,2,0,0,0-2-2Z"/>
         <rect class="cls-7" height="4.42" width="4.42" x="11.28" y="19.42"/>
         <rect class="cls-8" height="1.15" width="10.5" x="19.22" y="19.9"/>
         <rect class="cls-8" height="1.15" width="6.09" x="19.22" y="22.21"/>
         <polyline class="cls-9" points="18.22 18.25 14.25 22.21 12.64 20.6"/>
      </g>
   </g>
</svg>
