<?xml version="1.0" encoding="utf-8"?>
<!-- Copyright 2020 The MathWorks, Inc. -->
<svg xmlns="http://www.w3.org/2000/svg"
     xmlns:d="http://www.mathworks.com/blockgraphics"
     d:options="PreserveAspect:On;Resize:FitToBlock;Frame:Adaptive;Rotate:Off"
     id="Layer_1"
     version="1.1"
     viewBox="-5 -5 50 50"
     height="80"
     width="150">
   <defs>
      <style>.cls-1{isolation:isolate;}.cls-2{fill:#bfbfbf;}.cls-2,.cls-3,.cls-4,.cls-8{stroke:#333;}.cls-2,.cls-3{stroke-miterlimit:10;}.cls-3,.cls-4{fill:none;}.cls-4,.cls-8{stroke-linecap:round;stroke-linejoin:round;}.cls-4{stroke-width:0.5px;}.cls-5{font-size:6.5px;font-family:Helvetica;}.cls-5,.cls-7{fill:#333;}.cls-6{opacity:0.25;mix-blend-mode:multiply;}.cls-8,.cls-9{fill:#fff;}</style>
   </defs>
   <title>rosBag</title>
   <g class="cls-1">
      <g data-name="Layer 1" id="Layer_1">
         <path class="cls-2"
               d="M23.45,23.26c.67,4.49-6.12,5.08-12.75,5.08s-8.06-1.56-7.22-5.59c1-4.67,4.72-3.84,9.46-9C20.31,19.61,22.67,18.08,23.45,23.26Z"/>
         <path class="cls-2"
               d="M8.08,9.63c-.38-.17-1.95-.79-2-1.17s3-1.6,5.1-1.43a21.39,21.39,0,0,0,4.15-.26,5.32,5.32,0,0,1,2.87.89c1,1.48-1.74,3.15-2.36,3.68-1.43,1.22-2.38,2.29-2.54,2.4C12.12,14.51,11.71,11.24,8.08,9.63Z"/>
         <path class="cls-3"
               d="M6.81,9.05a22.14,22.14,0,0,0,6.3,1.1c3.14,0,5.55-1.43,5.15-2.36"/>
         <path class="cls-4" d="M12.94,13.79a1.94,1.94,0,0,0-.46-1.64"/>
         <path class="cls-4"
               d="M11.24,17.19a5.18,5.18,0,0,0,1.7-3.4,10.17,10.17,0,0,0,3.12,4.94"/>
         <text class="cls-5" transform="translate(2.27 4.72)">ROS Bag</text>
         <g class="cls-6">
            <path class="cls-7"
                  d="M18.54,27.79a5.54,5.54,0,0,1-.16-1.35,6,6,0,0,1,4.28-5.78,7.34,7.34,0,0,1,.79,2.6,3.07,3.07,0,0,1-.68,2.58A7.52,7.52,0,0,1,18.54,27.79Z"/>
            <path class="cls-7"
                  d="M22.41,21.27A8.34,8.34,0,0,1,23,23.33a2.57,2.57,0,0,1-.57,2.18,6.41,6.41,0,0,1-3.46,1.68,6.3,6.3,0,0,1-.05-.75,5.55,5.55,0,0,1,3.53-5.17m.48-1.19a6.56,6.56,0,0,0-5,6.36,6.7,6.7,0,0,0,.29,1.92c2.18-.38,4-1,5-2.2a3.57,3.57,0,0,0,.8-3,7.35,7.35,0,0,0-1.06-3.1Z"/>
         </g>
         <circle class="cls-8" cx="25.44" cy="25.44" r="6.06"/>
         <ellipse class="cls-8" cx="25.44" cy="25.47" rx="4.52" ry="2.58"/>
         <circle class="cls-7" cx="25.44" cy="25.08" r="2.24"/>
         <circle class="cls-9" cx="26.3" cy="24.19" r="0.56"/>
         <circle class="cls-9" cx="27.07" cy="24.97" r="0.22"/>
      </g>
   </g>
</svg>
