<?xml version="1.0" encoding="utf-8"?>
<!-- Copyright 2021 The MathWorks, Inc. -->
<svg xmlns="http://www.w3.org/2000/svg"
     xmlns:d="https://www.mathworks.com/blockgraphics"
     d:options="PreserveAspect:On;Resize:FitToBlock;Frame:Adaptive;Rotate:Off"
     width="110"
     height="60"
     viewBox="45 10 60 60"
     id="Layer_1"
     style="enable-background:new 0 0 150 80;"
     version="1.1"
     x="0px"
     xml:space="preserve"
     y="0px">
<style type="text/css">
	.st0{fill:#333333;}
	.st1{fill:#CCCCCC;}
	.st2{fill:#FFFFFF;}
	.st3{fill:#7D7D7D;}
	.st4{font-family:'Helvetica';}
	.st5{font-size:10.5px;}
	.st6{fill:#A6A6A6;stroke:#333333;stroke-width:1.125;stroke-linecap:round;stroke-linejoin:round;stroke-miterlimit:6;}
	.st7{fill:#E6E6E6;stroke:#333333;stroke-width:1.125;stroke-linecap:round;stroke-linejoin:round;stroke-miterlimit:6;}
	.st8{fill:#FFFFFF;stroke:#333333;stroke-width:1.125;stroke-linecap:round;stroke-linejoin:round;stroke-miterlimit:6;}
</style>
<path class="st0" d="M86.7,20.8v32H44.6v-32H86.7 M88.3,19.2H43v35.2h45.3V19.2z"/>
<rect class="st1" height="30.4" width="40.5" x="45.4" y="21.6"/>
<path class="st2" d="M85.1,22.4v28.8H46.2V22.4H85.1 M86.7,20.8H44.6v32h42.1V20.8z"/>
<circle class="st2" cx="78.2" cy="29.2" r="5.2"/>
<polygon class="st3"
            points="80.5,39.6 77,43.1 63.1,30.6 58.2,35.3 74.8,51.2 85.1,51.2 85.1,41.9 "/>
<polygon class="st3" points="58.2,35.3 48.7,26 46.2,28.9 46.2,51.2 75.3,51.2 "/>
<polygon class="st0" points="91.8,54.4 91.8,54.4 91.8,54.4 "/>
<text class="st4 st5" transform="translate(60.2559 16.8799)">ROS</text>
<g>
	<path class="st6"
            d="M92.1,49.9c0.7-0.7,0.7-1.8,0-2.5c-0.7-0.7-1.8-0.7-2.5,0l-1.8,1.8c-0.6,0.7-0.6,1.9,0.2,2.5   c0.7,0.6,1.7,0.6,2.3,0L92.1,49.9z"/>
	<rect class="st7" height="3.6"
            transform="matrix(0.7071 -0.7071 0.7071 0.7071 -12.2228 76.6146)"
            width="10.8"
            x="81"
            y="51.3"/>
	<polygon class="st8" points="80.1,59.4 81.3,55.6 83.9,58.1  "/>
</g>
</svg>