<?xml version="1.0" encoding="utf-8"?>
<!-- Copyright 2020 The MathWorks, Inc. -->
<svg xmlns="http://www.w3.org/2000/svg"
     xmlns:d="http://www.mathworks.com/blockgraphics"
     d:options="PreserveAspect:On;Resize:FitToBlock;Frame:Adaptive;Rotate:Off"
     id="Layer_1"
     version="1.1"
     viewBox="-15 -10 150 80"
     height="80"
     width="150">
   <defs>
      <style>.cls-1,.cls-7{fill:#333;}.cls-2{fill:#f2f2f2;}.cls-3{fill:#b3b3b3;}.cls-4{fill:#d9d9d9;}.cls-5{fill:#fff;}.cls-10,.cls-6{fill:none;}.cls-6{stroke:#333;stroke-miterlimit:10;stroke-width:2px;}.cls-7{font-size:8px;font-family:Helvetica, Helvetica;}.cls-8{fill:#e6e6e6;}.cls-9{fill:gray;}</style>
   </defs>
   <title>Subscribe ROS 2_031519</title>
   <polygon class="cls-1" points="70.49 30.59 70.22 31.57 69.09 30.59 70.49 30.59"/>
   <path class="cls-1"
         d="M77.59,37.92l-.17-.15a.51.51,0,0,1,.16.13S77.59,37.91,77.59,37.92Z"/>
   <polygon class="cls-1" points="92.73 30.59 92.66 30.66 92.67 30.59 92.73 30.59"/>
   <path class="cls-2"
         d="M92.87,46H69l6.24-5.38.45-.39.46-.4,1.09-.94,2.08,1.79,1.32,1.14a.49.49,0,0,0,.32.12.5.5,0,0,0,.33-.12l.08-.07.46-.4,2.86-2.46,4.29,3.71.84.72Z"/>
   <polygon class="cls-3" points="70.49 30.59 70.22 31.57 69.09 30.59 70.49 30.59"/>
   <path class="cls-1"
         d="M77.59,37.92l-.17-.15a.51.51,0,0,1,.16.13S77.59,37.91,77.59,37.92Z"/>
   <polygon class="cls-1" points="92.73 30.59 92.66 30.66 92.67 30.59 92.73 30.59"/>
   <path class="cls-1"
         d="M77.59,37.92l-.17-.15a.51.51,0,0,1,.16.13S77.59,37.91,77.59,37.92Z"/>
   <polygon class="cls-4" points="71.19 28 70.76 29.59 69.34 29.59 71.19 28"/>
   <polygon class="cls-1" points="92.48 29.59 92.43 29.59 92.44 29.56 92.48 29.59"/>
   <path class="cls-1"
         d="M94.21,29.76l0,0,0,0-.6-.51-.1.39,0,.14h0l-.09.34h0l-.13.12-.45.38-.07.07-.67.57L80.91,40.78l-3.32-2.86-.17-.15h0L71.07,32.3l-.43-.37-.42-.36-1.13-1h1.4l.1-.38,0-.12.14-.5H69.34L71.19,28h0l.23-.85.23-.86-4,3.43,0,0,0,0a1,1,0,0,0-.44.83V46a1,1,0,0,0,1,1H93.65a1,1,0,0,0,1-1V30.59A1,1,0,0,0,94.21,29.76Zm-26,1.36,1.76,1.52.42.36.42.36,5.65,4.87-1.49,1.29-.46.39L74,40.3l-5.84,5ZM69,46l6.24-5.38.45-.39.46-.4,1.09-.94,2.08,1.79,1.32,1.14a.49.49,0,0,0,.32.12.5.5,0,0,0,.33-.12l.08-.07.46-.4,2.86-2.46,4.29,3.71.84.72L92.87,46Zm24.7-.66-3.6-3.1-.41-.36-.42-.36L85.4,38.23,91.53,33l.66-.58.67-.57.79-.68Z"/>
   <polygon class="cls-2"
            points="93.65 31.12 93.65 45.34 90.05 42.24 89.64 41.88 89.22 41.52 85.4 38.23 91.53 32.95 92.19 32.37 92.86 31.8 93.65 31.12"/>
   <polygon class="cls-2"
            points="76.43 38.23 74.94 39.52 74.48 39.91 74.02 40.3 68.18 45.34 68.18 31.12 69.94 32.64 70.36 33 70.78 33.36 76.43 38.23"/>
   <polygon class="cls-2" points="92.72 25.9 86.6 24.26 88.24 18.14 92.72 25.9"/>
   <path class="cls-5"
         d="M93.14,27l-.4,1.43-.15.53h0l-.14.54v0l-.13.5,0,.12-.1.38-.17.64L80.91,40.78l-3.32-2.86s0,0,0,0a.51.51,0,0,0-.16-.13h0L71.07,32.3l.46-1.71.1-.38,0-.12.14-.5.74-2.76.23-.85h0l.23-.85-.7,2.67L76,14.11,87.46,17.2l-2,7.28a.55.55,0,0,0,0,.38.53.53,0,0,0,.31.24Z"/>
   <path class="cls-2"
         d="M77.59,37.92l-.17-.15a.51.51,0,0,1,.16.13S77.59,37.91,77.59,37.92Z"/>
   <polygon class="cls-2" points="92.48 29.59 92.43 29.59 92.44 29.56 92.48 29.59"/>
   <path class="cls-1" d="M92.44,29.56v0h0Zm.23,1v.07l.07-.07Z"/>
   <polygon class="cls-5" points="92.72 25.9 86.6 24.26 88.24 18.14 92.72 25.9"/>
   <path class="cls-1"
         d="M94.19,26.45,88.51,16.6a.64.64,0,0,0-.13-.15.56.56,0,0,0-.17-.09h0L75.76,13a.44.44,0,0,0-.37,0,.48.48,0,0,0-.24.3L71.65,26.28l-.23.86-.23.85h0l-.43,1.59-.14.5,0,.12-.1.38-.27,1,.42.36.43.37.46-1.71.1-.38,0-.12.14-.5.74-2.76.23-.85h0l.23-.85-.7,2.67L76,14.11,87.46,17.2l-2,7.28a.55.55,0,0,0,0,.38.53.53,0,0,0,.31.24L93.14,27l-.4,1.43-.15.53h0l-.14.54,0,0h0l-.13.5,0,.12-.1.38-.17.64.67-.57v-.07h.06l.45-.38.13-.12h0l.09-.34h0l0-.14.1-.39h0l.64-2.28v0l0-.06A.47.47,0,0,0,94.19,26.45ZM86.6,24.26l1.64-6.12,4.48,7.76Z"/>
   <line class="cls-6" x1="58.72" x2="43.67" y1="33.97" y2="33.97"/>
   <polygon class="cls-1" points="57.7 30.48 63.74 33.97 57.7 37.46 57.7 30.48"/>
   <path class="cls-5"
         d="M16,41a.5.5,0,0,1-.38-.18,3.3,3.3,0,0,1,2.51-5.46h0A4.49,4.49,0,0,1,22.67,31a4.28,4.28,0,0,1,1.13.15,6.18,6.18,0,0,1-.06-.85A7.27,7.27,0,0,1,31,23a7.19,7.19,0,0,1,6.35,3.78,3.08,3.08,0,0,1,.5,0A3.5,3.5,0,0,1,41.14,29a6.76,6.76,0,0,1,.92-.06,7.27,7.27,0,0,1,7.26,7.26s0,.05,0,.08a3.61,3.61,0,0,1,3.12,3.57,3.68,3.68,0,0,1-.08.75.5.5,0,0,1-.49.4Z"/>
   <path class="cls-1"
         d="M31,23.53a6.74,6.74,0,0,1,6.08,3.85,3,3,0,0,1,3.7,2.23,6.73,6.73,0,0,1,8,6.63c0,.19,0,.36-.05.54h.05a3.11,3.11,0,0,1,3,3.76H16a2.8,2.8,0,0,1,2.13-4.63,2.83,2.83,0,0,1,.57.06,3.93,3.93,0,0,1,0-.48,4,4,0,0,1,4-4,3.94,3.94,0,0,1,1.8.45A6.68,6.68,0,0,1,31,23.53m0-1a7.77,7.77,0,0,0-7.76,7.76q0,.12,0,.23a4.74,4.74,0,0,0-.58,0,5,5,0,0,0-5,4.44,3.8,3.8,0,0,0-2.44,6.26,1,1,0,0,0,.76.35H51.86a1,1,0,0,0,1-.79,4.11,4.11,0,0,0-3-4.85,7.77,7.77,0,0,0-7.75-7.42l-.61,0a4,4,0,0,0-3.6-2.24h-.23A7.68,7.68,0,0,0,31,22.53Z"/>
   <text class="cls-7" transform="translate(21.64 38.89)">ROS 2</text>
   <path class="cls-8" d="M86.44,27l.4-1.66L93.14,27l-6.38.34A.3.3,0,0,1,86.44,27Z"/>
   <path class="cls-9"
         d="M82.69,21.47l-.13,0-6.08-1.64a.5.5,0,0,1,.26-1l6.08,1.64a.5.5,0,0,1-.13,1Z"/>
   <path class="cls-9"
         d="M81.75,23.76l-.13,0-5.78-1.56a.5.5,0,0,1,.26-1l5.78,1.56a.5.5,0,0,1-.13,1Z"/>
   <path class="cls-9"
         d="M90.32,28.6l-.13,0-15-4a.5.5,0,1,1,.26-1l15,4a.5.5,0,0,1-.13,1Z"/>
   <path class="cls-9"
         d="M87.1,30.28l-.13,0L74.56,26.93a.5.5,0,1,1,.26-1L87.23,29.3a.5.5,0,0,1-.13,1Z"/>
   <path class="cls-9"
         d="M87.73,33l-.13,0L73.87,29.31a.5.5,0,1,1,.26-1L87.86,32a.5.5,0,0,1-.13,1Z"/>
   <polygon class="cls-10" points="80.91 41.5 83.29 39.47 76.45 37.64 80.91 41.5"/>
   <path class="cls-9" d="M88.06,34.63,73.48,30.71a.5.5,0,1,0-.26,1l13.92,3.73Z"/>
   <path class="cls-1" d="M87.1,40.46a.5.5,0,0,0,.45-.36.48.48,0,0,0,0-.1Z"/>
</svg>
