<?xml version="1.0" encoding="utf-8"?>
<!-- Copyright 2021 The MathWorks, Inc. -->
<svg xmlns="http://www.w3.org/2000/svg"
     xmlns:d="https://www.mathworks.com/blockgraphics"
     d:options="PreserveAspect:On;Resize:FitToBlock;Frame:Adaptive;Rotate:Off"
     data-name="Layer 1"
     version="1.1"
     viewBox="20 -6 120 110"
     height="60"
     width="110">
   <defs>
      <style>.cls-1{fill:none;stroke:#333;stroke-miterlimit:10;stroke-width:2px;}.cls-2{fill:#333;}.cls-3{fill:#fff;}.cls-4{fill:#bfbfbf;}</style>
   </defs>
   <title>CallService ROS 2_042321</title>
   <path d="M100.18,25.19A11.78,11.78,0,0,0,88.41,13.48a10.13,10.13,0,0,0-1.33.09A5.78,5.78,0,0,0,81.71,10,5.19,5.19,0,0,0,81,10,11.65,11.65,0,0,0,70.8,4,11.78,11.78,0,0,0,59,15.77a10.09,10.09,0,0,0,.06,1.09,6.94,6.94,0,0,0-1.57-.18,7.36,7.36,0,0,0-7.34,7,5.47,5.47,0,0,0-4,9,1,1,0,0,0,.76.35H67.5v7.24H65l3.45,6H55.68a1,1,0,0,0-1,1V68.57a1,1,0,0,0,1,1H69.59a.88.88,0,0,1,0,.15,5.29,5.29,0,0,1-5,3.39.9.9,0,0,0-.91.9v1H86.39V74a.9.9,0,0,0-.91-.9,5.61,5.61,0,0,1-3.06-.91,5,5,0,0,1-2-2.48.88.88,0,0,1,0-.15H94.32a1,1,0,0,0,1-1V47.31a1,1,0,0,0-1-1H82.5V39.15H85l-3.49-6-3.49,6H80.5v7.16h-12l3.45-6H69.5V33.1H104a1,1,0,0,0,1-.8,5.78,5.78,0,0,0,.13-1.23A6,6,0,0,0,100.18,25.19ZM84.3,74H65.7a6.2,6.2,0,0,0,4.78-3.94,4,4,0,0,0,.15-.49h8.74a4,4,0,0,0,.15.49A6.2,6.2,0,0,0,84.3,74Zm10-26.69V68.57H55.68V47.31ZM104,32.1H46.94a4.47,4.47,0,0,1,3.4-7.39,4.53,4.53,0,0,1,.91.09,6.31,6.31,0,0,1-.08-.76,6.31,6.31,0,0,1,9.22-5.65,10.73,10.73,0,0,1,20.1-7.25A4.44,4.44,0,0,1,81.71,11a4.8,4.8,0,0,1,4.67,3.73,10.51,10.51,0,0,1,2-.21A10.77,10.77,0,0,1,99.18,25.25c0,.3-.06.58-.08.87h.08a5,5,0,0,1,5,5A5.07,5.07,0,0,1,104,32.1Z"
         fill="#333"/>
   <path d="M104.14,31.07a5.07,5.07,0,0,1-.11,1H46.94a4.47,4.47,0,0,1,3.4-7.39,4.53,4.53,0,0,1,.91.09,6.31,6.31,0,0,1-.08-.76,6.31,6.31,0,0,1,9.22-5.65,10.73,10.73,0,0,1,20.1-7.25A4.44,4.44,0,0,1,81.71,11a4.8,4.8,0,0,1,4.67,3.73,10.51,10.51,0,0,1,2-.21A10.77,10.77,0,0,1,99.18,25.25c0,.3-.06.58-.08.87h.08A5,5,0,0,1,104.14,31.07Z"
         fill="#fff"/>
   <path d="M84.3,74H65.7a6.2,6.2,0,0,0,4.78-3.94,4,4,0,0,0,.15-.49h8.74a4,4,0,0,0,.15.49A6.2,6.2,0,0,0,84.3,74Z"
         fill="#bfbfbf"/>
   <rect fill="#fff" height="21.26" width="38.64" x="55.68" y="47.31"/>
   <path d="M57.12,21h4.11a3.91,3.91,0,0,1,1.68.31,2.22,2.22,0,0,1,1.25,2.2,2.46,2.46,0,0,1-.34,1.37,2.42,2.42,0,0,1-.93.86,1.87,1.87,0,0,1,.79.58,2.15,2.15,0,0,1,.3,1.18l0,1.25a5.1,5.1,0,0,0,.09.79.77.77,0,0,0,.39.57v.21H63a1.41,1.41,0,0,1-.1-.31c0-.13,0-.37-.06-.74l-.07-1.55a1.34,1.34,0,0,0-.64-1.23,2.61,2.61,0,0,0-1.07-.17H58.35v4H57.12Zm4,4.27a2.21,2.21,0,0,0,1.33-.36,1.49,1.49,0,0,0,.49-1.28,1.4,1.4,0,0,0-.69-1.36,2.2,2.2,0,0,0-1-.19H58.35v3.19Z"
         fill="#333"/>
   <path d="M73.53,22.29a5.26,5.26,0,0,1,.9,3.17,5.63,5.63,0,0,1-1,3.47,4.46,4.46,0,0,1-6.72.2,5.47,5.47,0,0,1-1.07-3.46,5.71,5.71,0,0,1,.91-3.24A3.92,3.92,0,0,1,70,20.7,4.09,4.09,0,0,1,73.53,22.29Zm-1.08,5.94a5.2,5.2,0,0,0,.72-2.75,4,4,0,0,0-.83-2.65,2.81,2.81,0,0,0-2.28-1,2.92,2.92,0,0,0-2.29,1,4.28,4.28,0,0,0-.89,2.93,4.36,4.36,0,0,0,.76,2.62,2.83,2.83,0,0,0,2.47,1.06A2.52,2.52,0,0,0,72.45,28.23Z"
         fill="#333"/>
   <path d="M76.69,27.27A2.66,2.66,0,0,0,77,28.56a2.25,2.25,0,0,0,2.07.93,3.57,3.57,0,0,0,1.21-.2,1.44,1.44,0,0,0,1.06-1.41,1.26,1.26,0,0,0-.45-1.09,4.5,4.5,0,0,0-1.42-.55L78.32,26a5.31,5.31,0,0,1-1.65-.61,2,2,0,0,1-.83-1.75,2.75,2.75,0,0,1,.82-2.06A3.17,3.17,0,0,1,79,20.72a3.9,3.9,0,0,1,2.35.71,2.62,2.62,0,0,1,1,2.26H81.15a2.51,2.51,0,0,0-.37-1.15A2.15,2.15,0,0,0,79,21.81a2,2,0,0,0-1.49.47,1.52,1.52,0,0,0-.46,1.1,1.08,1.08,0,0,0,.54,1,8.34,8.34,0,0,0,1.59.51l1.23.3a3.57,3.57,0,0,1,1.37.59,2.24,2.24,0,0,1,.84,1.89,2.42,2.42,0,0,1-1.07,2.22,4.59,4.59,0,0,1-2.47.67,3.59,3.59,0,0,1-2.58-.89,3.11,3.11,0,0,1-.91-2.4Z"
         fill="#333"/>
   <path d="M87.71,28.24a3.79,3.79,0,0,1,1.6-1.58L90.49,26a5.3,5.3,0,0,0,1.11-.81,1.68,1.68,0,0,0,.51-1.21,1.74,1.74,0,0,0-.46-1.26,1.67,1.67,0,0,0-1.24-.47,1.59,1.59,0,0,0-1.57.89,3.29,3.29,0,0,0-.26,1.33H87.45a4.19,4.19,0,0,1,.43-1.94,2.64,2.64,0,0,1,2.54-1.32,2.7,2.7,0,0,1,2.21.84,2.87,2.87,0,0,1,.7,1.88,2.63,2.63,0,0,1-.74,1.87A7.64,7.64,0,0,1,91,26.84l-.84.48a5.5,5.5,0,0,0-1,.66,2.41,2.41,0,0,0-.78,1.22h4.82v1.08H87.24A5.28,5.28,0,0,1,87.71,28.24Z"
         fill="#333"/>
</svg>