<?xml version="1.0" encoding="utf-8"?>
<!-- Copyright 2020 The MathWorks, Inc. -->
<svg xmlns="http://www.w3.org/2000/svg"
     xmlns:d="http://www.mathworks.com/blockgraphics"
     d:options="PreserveAspect:On;Resize:FitToBlock;Frame:Adaptive;Rotate:Off"
     height="80"
     id="Layer_1"
     version="1.1"
     width="150">
   <defs>
      <style>.cls-1{fill:#d9d9d9;}.cls-2{fill:#333;}</style>
   </defs>
   <title>ROS 1_031519</title>
   <rect class="cls-1" height="55.82" rx="9.5" ry="9.5" width="89" x="30.5" y="12.09"/>
   <path class="cls-2"
         d="M110,12.59a9,9,0,0,1,9,9V58.41a9,9,0,0,1-9,9H40a9,9,0,0,1-9-9V21.59a9,9,0,0,1,9-9h70m0-1H40a10,10,0,0,0-10,10V58.41a10,10,0,0,0,10,10h70a10,10,0,0,0,10-10V21.59a10,10,0,0,0-10-10Z"/>
   <path class="cls-2"
         d="M52.74,32.07h7.19a7.05,7.05,0,0,1,2.93.53,3.75,3.75,0,0,1,2.19,3.74,3.89,3.89,0,0,1-2.23,3.78,3.24,3.24,0,0,1,1.4,1,3.56,3.56,0,0,1,.52,2l.08,2.12A6.55,6.55,0,0,0,65,46.57a1.32,1.32,0,0,0,.69,1v.36H63a2,2,0,0,1-.17-.53,10.21,10.21,0,0,1-.11-1.25l-.13-2.64A2.23,2.23,0,0,0,61.5,41.4a4.51,4.51,0,0,0-1.87-.29H54.88V47.9H52.74Zm7,7.25a4,4,0,0,0,2.32-.6,2.49,2.49,0,0,0,.85-2.18,2.35,2.35,0,0,0-1.19-2.31A3.81,3.81,0,0,0,60,33.91H54.88v5.41Z"/>
   <path class="cls-2"
         d="M81.45,34.33A8.73,8.73,0,0,1,83,39.71a9.41,9.41,0,0,1-1.8,5.89,8,8,0,0,1-11.76.34,9.11,9.11,0,0,1-1.86-5.88,9.35,9.35,0,0,1,1.59-5.49,6.91,6.91,0,0,1,6.05-2.93Q79.43,31.64,81.45,34.33ZM79.56,44.42a8.65,8.65,0,0,0,1.27-4.67,6.68,6.68,0,0,0-1.46-4.5,5,5,0,0,0-4-1.7,5.2,5.2,0,0,0-4,1.69,7.12,7.12,0,0,0-1.55,5,7.28,7.28,0,0,0,1.33,4.44,5,5,0,0,0,4.31,1.81A4.46,4.46,0,0,0,79.56,44.42Z"/>
   <path class="cls-2"
         d="M87,42.79A4.45,4.45,0,0,0,87.59,45a4,4,0,0,0,3.62,1.57,6.21,6.21,0,0,0,2.12-.34,2.43,2.43,0,0,0,1.85-2.39A2.09,2.09,0,0,0,94.39,42,7.77,7.77,0,0,0,91.9,41l-2.08-.48a9.22,9.22,0,0,1-2.88-1,3.34,3.34,0,0,1-1.46-3A4.62,4.62,0,0,1,86.92,33,5.66,5.66,0,0,1,91,31.67a6.92,6.92,0,0,1,4.11,1.2,4.38,4.38,0,0,1,1.69,3.84h-2a4.06,4.06,0,0,0-.66-1.95,3.76,3.76,0,0,0-3.19-1.24,3.59,3.59,0,0,0-2.61.8,2.54,2.54,0,0,0-.79,1.85,1.82,1.82,0,0,0,.94,1.7,13.48,13.48,0,0,0,2.79.86l2.15.51a6.48,6.48,0,0,1,2.4,1,3.8,3.8,0,0,1,1.46,3.22,4,4,0,0,1-1.86,3.76,8.19,8.19,0,0,1-4.33,1.13,6.38,6.38,0,0,1-4.51-1.51A5.15,5.15,0,0,1,85,42.79Z"/>
</svg>
