<?xml version="1.0" encoding="utf-8"?>
<!-- Copyright 2020 The MathWorks, Inc. -->
<svg xmlns="http://www.w3.org/2000/svg"
     xmlns:d="http://www.mathworks.com/blockgraphics"
     d:options="PreserveAspect:On;Resize:FitToBlock;Frame:Adaptive;Rotate:Off"
     height="80"
     id="Layer_1"
     version="1.1"
     width="150">
   <defs>
      <style>.cls-1{fill:#d9d9d9;}.cls-2{fill:#333;}</style>
   </defs>
   <title>ROS 2_031519</title>
   <rect class="cls-1" height="55.82" rx="9.5" ry="9.5" width="89" x="30.5" y="12.09"/>
   <path class="cls-2"
         d="M110,12.59a9,9,0,0,1,9,9V58.41a9,9,0,0,1-9,9H40a9,9,0,0,1-9-9V21.59a9,9,0,0,1,9-9h70m0-1H40a10,10,0,0,0-10,10V58.41a10,10,0,0,0,10,10h70a10,10,0,0,0,10-10V21.59a10,10,0,0,0-10-10Z"/>
   <path class="cls-2"
         d="M43.32,32.07h7.19a7.05,7.05,0,0,1,2.93.53,3.75,3.75,0,0,1,2.19,3.74,3.89,3.89,0,0,1-2.23,3.78,3.24,3.24,0,0,1,1.4,1,3.56,3.56,0,0,1,.52,2l.08,2.12a6.55,6.55,0,0,0,.15,1.35,1.32,1.32,0,0,0,.69,1v.36H53.61a2,2,0,0,1-.17-.53,10.21,10.21,0,0,1-.11-1.25l-.13-2.64a2.23,2.23,0,0,0-1.12-2.08,4.51,4.51,0,0,0-1.87-.29H45.47V47.9H43.32Zm7,7.25a4,4,0,0,0,2.32-.6,2.49,2.49,0,0,0,.85-2.18,2.35,2.35,0,0,0-1.19-2.31,3.81,3.81,0,0,0-1.71-.32H45.47v5.41Z"/>
   <path class="cls-2"
         d="M72,34.33a8.73,8.73,0,0,1,1.57,5.38,9.41,9.41,0,0,1-1.8,5.89,7.13,7.13,0,0,1-6,2.76A7.2,7.2,0,0,1,60,45.95a9.11,9.11,0,0,1-1.86-5.88,9.35,9.35,0,0,1,1.59-5.49,6.91,6.91,0,0,1,6.05-2.93Q70,31.64,72,34.33ZM70.14,44.42a8.65,8.65,0,0,0,1.27-4.67,6.68,6.68,0,0,0-1.46-4.5,5,5,0,0,0-4-1.7,5.2,5.2,0,0,0-4,1.69,7.12,7.12,0,0,0-1.55,5,7.28,7.28,0,0,0,1.33,4.44A5,5,0,0,0,66,46.45,4.46,4.46,0,0,0,70.14,44.42Z"/>
   <path class="cls-2"
         d="M77.56,42.79A4.45,4.45,0,0,0,78.17,45a4,4,0,0,0,3.62,1.57,6.21,6.21,0,0,0,2.12-.34,2.43,2.43,0,0,0,1.85-2.39A2.09,2.09,0,0,0,85,42,7.77,7.77,0,0,0,82.49,41l-2.08-.48a9.22,9.22,0,0,1-2.88-1,3.34,3.34,0,0,1-1.46-3A4.62,4.62,0,0,1,77.51,33a5.66,5.66,0,0,1,4.07-1.37,6.92,6.92,0,0,1,4.11,1.2,4.38,4.38,0,0,1,1.69,3.84h-2a4.06,4.06,0,0,0-.66-1.95,3.76,3.76,0,0,0-3.19-1.24,3.59,3.59,0,0,0-2.61.8,2.54,2.54,0,0,0-.79,1.85,1.82,1.82,0,0,0,.94,1.7,13.48,13.48,0,0,0,2.79.86l2.15.51a6.48,6.48,0,0,1,2.4,1,3.8,3.8,0,0,1,1.46,3.22A4,4,0,0,1,86,47.23a8.19,8.19,0,0,1-4.33,1.13,6.38,6.38,0,0,1-4.51-1.51,5.15,5.15,0,0,1-1.6-4.06Z"/>
   <path class="cls-2"
         d="M96.84,44.43a6.67,6.67,0,0,1,2.8-2.68l2.07-1.2a9.71,9.71,0,0,0,1.95-1.38,3,3,0,0,0,.08-4.19,2.94,2.94,0,0,0-2.15-.79,2.81,2.81,0,0,0-2.76,1.51,5.44,5.44,0,0,0-.45,2.25h-2a6.92,6.92,0,0,1,.74-3.29q1.26-2.24,4.45-2.24a4.58,4.58,0,0,1,5.1,4.62,4.33,4.33,0,0,1-1.3,3.17,12.76,12.76,0,0,1-2.7,1.85l-1.48.82A9.54,9.54,0,0,0,99.53,44a4,4,0,0,0-1.36,2.08h8.42V47.9H96A9,9,0,0,1,96.84,44.43Z"/>
</svg>
