<?xml version="1.0" encoding="utf-8"?>
<svg xmlns="http://www.w3.org/2000/svg"
     xmlns:d="http://www.mathworks.com/blockgraphics"
     xmlns:xlink="http://www.w3.org/1999/xlink"
     d:options="Resize:FitToBlock;PreserveAspect:On;PreRotate:None;Rotate:Off;Frame:Rectangle;Foreground:Off;Background:Off;ScalingOnResizeMax:None;StrokeScaling:None;StrokeScalingOnResize:Linear;StrokeScalingOnZoom:Linear"
     height="100"
     id="Layer_1"
     version="1.1"
     width="150">
   <defs>
      <style>.cls-1,.cls-3,.cls-6,.cls-7,.cls-8,.cls-9{fill:none;}.cls-2{clip-path:url(#clip-path);}.cls-3{stroke:#333;}.cls-3,.cls-6,.cls-7,.cls-8,.cls-9{stroke-linecap:round;stroke-linejoin:round;}.cls-4{fill:#333;}.cls-5{fill:#d9d9d9;}.cls-6{stroke:#8c8c8c;}.cls-7,.cls-8,.cls-9{stroke:#a6a6a6;}.cls-8{stroke-dasharray:2.97 2.97;}.cls-9{stroke-dasharray:2.95 2.95;}.cls-10{fill:#595959;}</style>
      <clipPath id="clip-path">
         <rect class="cls-1" height="90.01" width="135.25" x="1.37" y="1"/>
      </clipPath>
   </defs>
   <title>Car-Like - Ackermann_042619</title>
   <g class="cls-2">
      <path class="cls-3" d="M115.13,31.32a30.85,30.85,0,0,1,3.7,14.7"/>
      <polygon class="cls-4" points="113.5 33.05 113.46 28.56 117.36 30.77 113.5 33.05"/>
      <rect class="cls-5" height="45.91" rx="6" width="86.71" x="18.48" y="23.07"/>
      <line class="cls-6" x1="15.01" x2="122.99" y1="46.02" y2="46.02"/>
      <line class="cls-6" x1="33.8" x2="33.8" y1="28.59" y2="63.83"/>
      <line class="cls-6" x1="87.57" x2="87.57" y1="28.59" y2="63.83"/>
      <polyline class="cls-3" points="116.44 26.15 87.67 46.03 68.03 17.6"/>
      <polyline class="cls-3" points="84.68 41.48 88.96 38.52 92.04 42.99"/>
      <line class="cls-7" x1="87.68" x2="86.69" y1="29.39" y2="28.26"/>
      <line class="cls-8" x1="84.73" x2="34.87" y1="26.01" y2="-31.15"/>
      <line class="cls-9" x1="35.09" x2="86.46" y1="-29.53" y2="61.66"/>
      <line class="cls-7" x1="87.18" x2="87.92" y1="62.94" y2="64.25"/>
      <circle class="cls-10" cx="33.8" cy="46.02" r="1.38"/>
      <rect class="cls-10" height="4.08" rx="2.04" width="17.61" x="25.3" y="61.47"/>
      <rect class="cls-10" height="4.08" rx="2.04" width="17.61" x="25.3" y="26.48"/>
      <rect class="cls-10" height="4.08" rx="2.04"
            transform="translate(2.56 64.21) rotate(-40.81)"
            width="17.61"
            x="78.77"
            y="26.62"/>
      <rect class="cls-10" height="4.08" rx="2.04"
            transform="translate(-20.05 52.3) rotate(-30)"
            width="17.61"
            x="78.77"
            y="61.52"/>
   </g>
</svg>