<?xml version="1.0" encoding="utf-8"?>
<svg xmlns="http://www.w3.org/2000/svg"
     xmlns:d="http://www.mathworks.com/blockgraphics"
     d:options="PreserveAspect:On;Resize:FitToBlock;Frame:Adaptive;Rotate:Off"
     height="100"
     id="Layer_1"
     version="1.1"
     width="150">
   <defs>
      <style>.cls-1{fill:#d9d9d9;}.cls-2{fill:#595959;}.cls-3,.cls-5,.cls-7{fill:none;}.cls-3{stroke:#333;}.cls-3,.cls-5{stroke-miterlimit:10;}.cls-4{fill:#333;}.cls-5{stroke:#666;}.cls-6{fill:#666;}.cls-7{stroke:#8c8c8c;stroke-linecap:round;stroke-linejoin:round;}</style>
   </defs>
   <title>Differential Drive_042619</title>
   <polygon class="cls-1"
            points="97.78 23.45 36.99 23.45 36.99 76.55 97.78 76.55 125.01 50 97.78 23.45"/>
   <circle class="cls-2" cx="104.18" cy="50" r="2.72"/>
   <line class="cls-3" x1="60.96" x2="96.6" y1="50" y2="50"/>
   <polygon class="cls-4" points="95.94 52.24 99.83 50 95.94 47.76 95.94 52.24"/>
   <path class="cls-5" d="M77.44,38.74a22.48,22.48,0,0,1,2.62,7.73"/>
   <polygon class="cls-6" points="77.7 46.04 80.3 49.7 82.17 45.61 77.7 46.04"/>
   <line class="cls-3" x1="57.95" x2="92.06" y1="49.92" y2="29.97"/>
   <polygon class="cls-4" points="92.63 32.24 94.85 28.34 90.36 28.36 92.63 32.24"/>
   <line class="cls-7" x1="57.95" x2="57.95" y1="30.86" y2="67.29"/>
   <circle class="cls-4" cx="57.95" cy="50" r="3.06"/>
   <rect class="cls-2" height="4.42" rx="1.81" width="32.27" x="41.82" y="67.29"/>
   <rect class="cls-2" height="4.42" rx="1.81" width="32.27" x="41.82" y="28.3"/>
</svg>