<?xml version="1.0" encoding="utf-8"?>
<svg xmlns="http://www.w3.org/2000/svg"
     xmlns:d="http://www.mathworks.com/blockgraphics"
     d:options="PreserveAspect:On;Resize:FitToBlock;Frame:Adaptive;Rotate:Off"
     height="100"
     id="Layer_1"
     version="1.1"
     width="150">
    <defs>
        <style>.cls-1{fill:#333;}.cls-2{fill:none;stroke:gray;stroke-width:2px;}.cls-2,.cls-5{stroke-miterlimit:10;}.cls-3,.cls-6{fill:gray;}.cls-4,.cls-5{fill:#fff;}.cls-5{stroke:#333;}.cls-6{font-size:10px;font-family:Helvetica;}</style>
    </defs>
    <title>Gazebo Publish_101019</title>
    <path class="cls-1" d="M95.57,7.9a4.08,4.08,0,0,1,2.08,3.18H96.1A2.83,2.83,0,0,0,95,9.23a3.91,3.91,0,0,0-2.21-.58,3.42,3.42,0,0,0-2.66,1.21A5.28,5.28,0,0,0,89,13.46a5.81,5.81,0,0,0,.89,3.37,3.27,3.27,0,0,0,2.9,1.3,3.65,3.65,0,0,0,2.55-.92,3.86,3.86,0,0,0,1-3H92.75V13h5.09v6.21h-1l-.38-1.49a5.62,5.62,0,0,1-1.39,1.21,5.13,5.13,0,0,1-2.58.59A5,5,0,0,1,89,18.14a6.42,6.42,0,0,1-1.6-4.6A6.64,6.64,0,0,1,89,8.91a4.9,4.9,0,0,1,3.83-1.64A5.81,5.81,0,0,1,95.57,7.9Z"/>
    <path class="cls-1" d="M104.77,14.05a.77.77,0,0,0,.66-.41,1.34,1.34,0,0,0,.09-.55A1.18,1.18,0,0,0,105,12a2.77,2.77,0,0,0-1.48-.33,1.89,1.89,0,0,0-1.58.61,2.08,2.08,0,0,0-.34,1h-1.32a2.43,2.43,0,0,1,1-2.18,4.14,4.14,0,0,1,2.26-.62,4.59,4.59,0,0,1,2.42.57,1.92,1.92,0,0,1,.92,1.77v4.88a.56.56,0,0,0,.1.35c.06.09.18.13.38.13h.21l.25,0v1.05l-.5.12-.48,0a1.16,1.16,0,0,1-1.06-.52,2,2,0,0,1-.25-.78,3.48,3.48,0,0,1-1.24,1,3.88,3.88,0,0,1-1.8.42,2.69,2.69,0,0,1-1.92-.71A2.37,2.37,0,0,1,99.84,17a2.3,2.3,0,0,1,.74-1.82,3.5,3.5,0,0,1,1.92-.8Zm-3,3.84a1.63,1.63,0,0,0,1.06.35,3.29,3.29,0,0,0,1.46-.34A2,2,0,0,0,105.48,16V14.87a2.5,2.5,0,0,1-.67.28,8.08,8.08,0,0,1-.8.16l-.86.11a3.06,3.06,0,0,0-1.16.32,1.25,1.25,0,0,0-.66,1.18A1.17,1.17,0,0,0,101.78,17.89Z"/>
    <path class="cls-1" d="M108.6,18.05l5-6.07H109V10.71h6.57v1.16l-5,6h5.14v1.27H108.6Z"/>
    <path class="cls-1" d="M122.55,10.94a3.23,3.23,0,0,1,1.28,1.1,3.7,3.7,0,0,1,.56,1.49,9.22,9.22,0,0,1,.13,1.86h-6.15a3.58,3.58,0,0,0,.6,2.07,2,2,0,0,0,1.75.78,2.25,2.25,0,0,0,1.76-.73,2.46,2.46,0,0,0,.52-1h1.4a2.91,2.91,0,0,1-.37,1,4,4,0,0,1-.69.94,3.31,3.31,0,0,1-1.6.85,4.44,4.44,0,0,1-1.15.13,3.53,3.53,0,0,1-2.66-1.15,4.49,4.49,0,0,1-1.09-3.22,4.9,4.9,0,0,1,1.1-3.31,3.6,3.6,0,0,1,2.87-1.27A3.85,3.85,0,0,1,122.55,10.94Zm.51,3.32a3.68,3.68,0,0,0-.4-1.47,2,2,0,0,0-1.94-1,2.16,2.16,0,0,0-1.63.71,2.63,2.63,0,0,0-.69,1.79Z"/>
    <path class="cls-1" d="M126.2,7.53h1.38v4.21a3.11,3.11,0,0,1,1.12-.93,3,3,0,0,1,1.41-.32,3.34,3.34,0,0,1,2.58,1.08,4.69,4.69,0,0,1,1,3.21,5.49,5.49,0,0,1-1,3.33A3.18,3.18,0,0,1,130,19.44a2.78,2.78,0,0,1-1.63-.47,4,4,0,0,1-.85-.88v1.08H126.2Zm5.44,9.74a4.56,4.56,0,0,0,.57-2.42,4,4,0,0,0-.57-2.21,1.9,1.9,0,0,0-1.7-.88,2.35,2.35,0,0,0-1.7.72,3.22,3.22,0,0,0-.74,2.37,5.21,5.21,0,0,0,.3,1.93,2.08,2.08,0,0,0,2.1,1.4A1.92,1.92,0,0,0,131.64,17.27Z"/>
    <path class="cls-1" d="M141.44,11.55a4.28,4.28,0,0,1,1.13,3.21,5.53,5.53,0,0,1-1,3.38,3.59,3.59,0,0,1-3.07,1.33,3.44,3.44,0,0,1-2.75-1.18,4.68,4.68,0,0,1-1-3.17,5.08,5.08,0,0,1,1.07-3.39,3.62,3.62,0,0,1,2.89-1.27A3.8,3.8,0,0,1,141.44,11.55Zm-.88,5.63a5.36,5.36,0,0,0,.52-2.38,4.31,4.31,0,0,0-.37-1.93,2.11,2.11,0,0,0-2.05-1.17,2,2,0,0,0-1.87,1,4.64,4.64,0,0,0-.59,2.4,4,4,0,0,0,.59,2.25,2.06,2.06,0,0,0,1.85.89A1.92,1.92,0,0,0,140.56,17.18Z"/>
    <path class="cls-1" d="M96.51,27.82a4.14,4.14,0,0,1,1.34,2.64H96.32a3.2,3.2,0,0,0-1-1.78A3.25,3.25,0,0,0,93.15,28a3.42,3.42,0,0,0-2.72,1.2,5.6,5.6,0,0,0-1,3.7,5.47,5.47,0,0,0,.93,3.31,3.26,3.26,0,0,0,2.79,1.27,2.93,2.93,0,0,0,2.6-1.34,5.11,5.11,0,0,0,.71-1.85H98a5.27,5.27,0,0,1-1.34,3.07,4.74,4.74,0,0,1-3.69,1.5,4.84,4.84,0,0,1-3.36-1.23,6.43,6.43,0,0,1-1.78-5,6.4,6.4,0,0,1,1.34-4.21,4.88,4.88,0,0,1,4-1.79A4.68,4.68,0,0,1,96.51,27.82Z"/>
    <path class="cls-1" d="M101.22,30.12v5.62a2.42,2.42,0,0,0,.2,1,1.39,1.39,0,0,0,1.38.76,2,2,0,0,0,2-1.32,5.46,5.46,0,0,0,.28-2V30.12h1.42v8.46h-1.34l0-1.25a2.82,2.82,0,0,1-.68.81,2.9,2.9,0,0,1-1.94.67,2.47,2.47,0,0,1-2.41-1.21,3.57,3.57,0,0,1-.35-1.73V30.12Z"/>
    <path class="cls-1" d="M109.64,35.93A2,2,0,0,0,110,37a2.34,2.34,0,0,0,1.91.68,2.8,2.8,0,0,0,1.41-.34,1.14,1.14,0,0,0,.62-1.06.91.91,0,0,0-.49-.83,6,6,0,0,0-1.24-.41l-1.15-.28a5.77,5.77,0,0,1-1.62-.6,1.79,1.79,0,0,1-.93-1.6,2.41,2.41,0,0,1,.88-1.94,3.55,3.55,0,0,1,2.36-.74A3.28,3.28,0,0,1,114.54,31a2.4,2.4,0,0,1,.52,1.53h-1.34a1.66,1.66,0,0,0-.35-.87,2.27,2.27,0,0,0-1.74-.56,2.15,2.15,0,0,0-1.25.31,1,1,0,0,0-.42.81,1,1,0,0,0,.55.88,3.6,3.6,0,0,0,.95.35l1,.23a7.24,7.24,0,0,1,2.09.72,1.88,1.88,0,0,1,.83,1.71,2.63,2.63,0,0,1-.86,1.95,3.72,3.72,0,0,1-2.65.82,3.57,3.57,0,0,1-2.7-.85,3.26,3.26,0,0,1-.86-2.12Z"/>
    <path class="cls-1" d="M117.17,27.76h1.44v2.36H120v1.16h-1.35V36.8a.59.59,0,0,0,.3.59,1.21,1.21,0,0,0,.55.09h.22l.28,0v1.13a3.06,3.06,0,0,1-.51.1,5.22,5.22,0,0,1-.58,0,1.55,1.55,0,0,1-1.35-.51,2.31,2.31,0,0,1-.35-1.32v-5.6H116V30.12h1.15Z"/>
    <path class="cls-1" d="M127.51,31a4.32,4.32,0,0,1,1.12,3.21,5.53,5.53,0,0,1-1,3.38,3.59,3.59,0,0,1-3.07,1.33,3.44,3.44,0,0,1-2.75-1.18,4.68,4.68,0,0,1-1-3.17,5,5,0,0,1,1.08-3.39,3.58,3.58,0,0,1,2.88-1.26A3.83,3.83,0,0,1,127.51,31Zm-.89,5.63a5.36,5.36,0,0,0,.52-2.38,4.31,4.31,0,0,0-.37-1.93,2.11,2.11,0,0,0-2-1.16,2,2,0,0,0-1.87,1,4.64,4.64,0,0,0-.59,2.4,4,4,0,0,0,.59,2.25,2.06,2.06,0,0,0,1.86.9A1.93,1.93,0,0,0,126.62,36.59Z"/>
    <path class="cls-1" d="M130.37,30.12h1.41v1.2a4.56,4.56,0,0,1,.92-.91,2.76,2.76,0,0,1,1.59-.48,2.52,2.52,0,0,1,1.63.5,2.63,2.63,0,0,1,.63.84,2.93,2.93,0,0,1,2.55-1.34,2.35,2.35,0,0,1,2.32,1.23,3.91,3.91,0,0,1,.34,1.79v5.63h-1.48V32.7a1.37,1.37,0,0,0-.42-1.16,1.7,1.7,0,0,0-1-.31,2,2,0,0,0-1.45.56,2.45,2.45,0,0,0-.6,1.87v4.92h-1.45V33.06a2.86,2.86,0,0,0-.2-1.26,1.27,1.27,0,0,0-1.21-.59,2.09,2.09,0,0,0-1.46.62,3.07,3.07,0,0,0-.66,2.26v4.49h-1.43Z"/>
    <path class="cls-1" d="M88.87,54.25a3.33,3.33,0,0,0,.45,1.6A2.93,2.93,0,0,0,92,57a4.54,4.54,0,0,0,1.55-.25A1.77,1.77,0,0,0,94.88,55a1.54,1.54,0,0,0-.57-1.35A5.49,5.49,0,0,0,92.49,53L91,52.6a6.82,6.82,0,0,1-2.11-.76,2.47,2.47,0,0,1-1.07-2.17,3.39,3.39,0,0,1,1-2.57,4.17,4.17,0,0,1,3-1,5,5,0,0,1,3,.88,3.19,3.19,0,0,1,1.25,2.81H94.6a3,3,0,0,0-.49-1.43,2.77,2.77,0,0,0-2.34-.91,2.63,2.63,0,0,0-1.91.59,1.87,1.87,0,0,0-.59,1.36A1.34,1.34,0,0,0,90,50.65a11.2,11.2,0,0,0,2.05.63l1.57.37a4.75,4.75,0,0,1,1.76.73,2.79,2.79,0,0,1,1.08,2.37,3,3,0,0,1-1.37,2.75,5.94,5.94,0,0,1-3.18.83,4.64,4.64,0,0,1-3.3-1.11,3.77,3.77,0,0,1-1.18-3Z"/>
    <path class="cls-1" d="M99.87,49.53v5.62a2.36,2.36,0,0,0,.2,1.06,1.38,1.38,0,0,0,1.37.76,2,2,0,0,0,2-1.33,5.42,5.42,0,0,0,.29-2V49.53h1.42V58h-1.34V56.74a2.84,2.84,0,0,1-.67.82,2.94,2.94,0,0,1-1.94.66A2.49,2.49,0,0,1,98.76,57a3.69,3.69,0,0,1-.35-1.73V49.53Z"/>
    <path class="cls-1" d="M107.32,49.57h1.39v1.12a3.56,3.56,0,0,1,.94-.89,3,3,0,0,1,1.69-.47,3.18,3.18,0,0,1,2.45,1.1,4.5,4.5,0,0,1,1,3.15,4.82,4.82,0,0,1-1.45,4,3.27,3.27,0,0,1-2.14.75,2.92,2.92,0,0,1-1.61-.42,3.93,3.93,0,0,1-.85-.82v4.32h-1.42Zm5.35,6.63a3.94,3.94,0,0,0,.66-2.49A4.6,4.6,0,0,0,113,52a2.15,2.15,0,0,0-4.06.08,6,6,0,0,0-.29,2,4.29,4.29,0,0,0,.29,1.66,2.15,2.15,0,0,0,3.69.48Z"/>
    <path class="cls-1" d="M116.32,49.57h1.39v1.12a3.53,3.53,0,0,1,.93-.89,3,3,0,0,1,1.7-.47,3.19,3.19,0,0,1,2.45,1.1,4.5,4.5,0,0,1,1,3.15,4.82,4.82,0,0,1-1.45,4,3.29,3.29,0,0,1-2.14.75,2.9,2.9,0,0,1-1.61-.42,3.72,3.72,0,0,1-.85-.82v4.32h-1.42Zm5.35,6.63a3.94,3.94,0,0,0,.66-2.49A4.8,4.8,0,0,0,122,52a2.15,2.15,0,0,0-4.06.08,5.77,5.77,0,0,0-.29,2,4.11,4.11,0,0,0,.29,1.66,2.15,2.15,0,0,0,3.69.48Z"/>
    <path class="cls-1" d="M131.56,50.38a4.24,4.24,0,0,1,1.13,3.2,5.53,5.53,0,0,1-1,3.38,3.56,3.56,0,0,1-3.07,1.33,3.43,3.43,0,0,1-2.75-1.18,4.66,4.66,0,0,1-1-3.17,5.08,5.08,0,0,1,1.07-3.39,3.61,3.61,0,0,1,2.89-1.26A3.76,3.76,0,0,1,131.56,50.38ZM130.68,56a5.33,5.33,0,0,0,.52-2.38,4.31,4.31,0,0,0-.37-1.93,2.12,2.12,0,0,0-2.05-1.16,2,2,0,0,0-1.88,1,4.64,4.64,0,0,0-.58,2.4,4,4,0,0,0,.58,2.25,2.06,2.06,0,0,0,1.86.9A1.94,1.94,0,0,0,130.68,56Z"/>
    <path class="cls-1" d="M134.47,49.53h1.35V51a3.29,3.29,0,0,1,.81-1,2.16,2.16,0,0,1,1.5-.61h.13l.32,0v1.5l-.23,0h-.23a2,2,0,0,0-1.65.69,2.43,2.43,0,0,0-.58,1.6V58h-1.42Z"/>
    <path class="cls-1" d="M140.1,47.17h1.44v2.36h1.35v1.16h-1.35v5.52a.6.6,0,0,0,.3.6,1.41,1.41,0,0,0,.55.08h.22l.28,0V58a2.71,2.71,0,0,1-.51.1,3.48,3.48,0,0,1-.57,0,1.53,1.53,0,0,1-1.35-.51,2.25,2.25,0,0,1-.36-1.33v-5.6H139V49.53h1.14Z"/>
    <line class="cls-2" x1="79.73" y1="33.94" x2="63.36" y2="33.94"/>
    <polygon class="cls-3" points="78.71 30.45 84.75 33.94 78.71 37.43 78.71 30.45"/>
    <rect class="cls-4" x="30.25" y="18.44" width="31" height="31" rx="4.5"/>
    <path class="cls-1" d="M56.75,18.94a4,4,0,0,1,4,4v22a4,4,0,0,1-4,4h-22a4,4,0,0,1-4-4v-22a4,4,0,0,1,4-4h22m0-1h-22a5,5,0,0,0-5,5v22a5,5,0,0,0,5,5h22a5,5,0,0,0,5-5v-22a5,5,0,0,0-5-5Z"/>
    <polyline class="cls-5" points="34.77 28.69 51.67 28.69 51.67 36.14"/>
    <rect class="cls-4" x="47.21" y="36.29" width="9.02" height="9.02"/>
    <path class="cls-1" d="M55.73,36.79v8h-8v-8h8m1-1h-10v10h10v-10Z"/>
    <polygon class="cls-4" points="38.22 22.94 48.07 28.69 38.22 34.44 38.22 22.94"/>
    <path class="cls-1" d="M38.72,23.81l8.36,4.88-8.36,4.87V23.81m-1-1.74V35.31l11.34-6.62L37.72,22.07Z"/>
    <text class="cls-6" transform="translate(64.61 45.8)">Msg</text>
</svg>
