<?xml version="1.0" encoding="utf-8"?>
<svg xmlns="http://www.w3.org/2000/svg"
     xmlns:d="http://www.mathworks.com/blockgraphics"
     d:options="PreserveAspect:On;Resize:FitToBlock;Frame:Adaptive;Rotate:Off"
     height="100"
     id="Layer_1"
     version="1.1"
     width="150">
    <defs>
        <style>.cls-1{fill:#333;}.cls-2{fill:none;stroke:gray;stroke-width:2px;}.cls-2,.cls-5{stroke-miterlimit:10;}.cls-3{fill:gray;}.cls-4,.cls-5{fill:#fff;}.cls-5{stroke:#333;}</style>
    </defs>
    <title>Gazebo Subscribe_101019</title>
    <path class="cls-1" d="M15.17,7.9a4.09,4.09,0,0,1,2.09,3.18H15.71a2.8,2.8,0,0,0-1.16-1.85,3.87,3.87,0,0,0-2.2-.58A3.42,3.42,0,0,0,9.69,9.86a5.23,5.23,0,0,0-1.08,3.6,5.88,5.88,0,0,0,.89,3.37,3.28,3.28,0,0,0,2.9,1.3A3.69,3.69,0,0,0,15,17.21a3.89,3.89,0,0,0,1-3H12.36V13h5.09v6.21h-1l-.38-1.49a5.81,5.81,0,0,1-1.39,1.21,5.14,5.14,0,0,1-2.59.59,5,5,0,0,1-3.49-1.34A6.42,6.42,0,0,1,7,13.54,6.64,6.64,0,0,1,8.56,8.91a4.88,4.88,0,0,1,3.83-1.64A5.79,5.79,0,0,1,15.17,7.9Z"/>
    <path class="cls-1" d="M24.38,14.05a.77.77,0,0,0,.65-.41,1.17,1.17,0,0,0,.1-.55A1.16,1.16,0,0,0,24.61,12a2.75,2.75,0,0,0-1.48-.33,1.87,1.87,0,0,0-1.57.61,1.89,1.89,0,0,0-.34,1H19.89a2.47,2.47,0,0,1,1-2.18,4.17,4.17,0,0,1,2.27-.62,4.59,4.59,0,0,1,2.42.57,1.94,1.94,0,0,1,.92,1.77v4.88a.63.63,0,0,0,.09.35c.06.09.19.13.38.13h.22l.25,0v1.05l-.51.12-.47,0a1.18,1.18,0,0,1-1.07-.52,2.25,2.25,0,0,1-.24-.78,3.52,3.52,0,0,1-1.25,1,3.84,3.84,0,0,1-1.79.42,2.66,2.66,0,0,1-1.92-.71A2.37,2.37,0,0,1,19.45,17a2.29,2.29,0,0,1,.73-1.82,3.54,3.54,0,0,1,1.93-.8Zm-3,3.84a1.66,1.66,0,0,0,1.07.35,3.22,3.22,0,0,0,1.45-.34A2,2,0,0,0,25.09,16V14.87a2.65,2.65,0,0,1-.67.28c-.28.07-.54.12-.81.16l-.85.11a3.12,3.12,0,0,0-1.17.32,1.25,1.25,0,0,0-.66,1.18A1.17,1.17,0,0,0,21.38,17.89Z"/>
    <path class="cls-1" d="M28.21,18.05l5-6.07H28.58V10.71h6.56v1.16l-5,6h5.14v1.27H28.21Z"/>
    <path class="cls-1" d="M42.15,10.94A3.17,3.17,0,0,1,43.43,12,3.71,3.71,0,0,1,44,13.53a10.25,10.25,0,0,1,.12,1.86H38a3.73,3.73,0,0,0,.6,2.07,2,2,0,0,0,1.75.78,2.26,2.26,0,0,0,1.77-.73,2.73,2.73,0,0,0,.52-1H44a2.91,2.91,0,0,1-.37,1,3.71,3.71,0,0,1-.7.94,3.32,3.32,0,0,1-1.59.85,4.49,4.49,0,0,1-1.15.13,3.51,3.51,0,0,1-2.66-1.15,4.49,4.49,0,0,1-1.09-3.22,4.85,4.85,0,0,1,1.1-3.31,3.6,3.6,0,0,1,2.87-1.27A3.8,3.8,0,0,1,42.15,10.94Zm.51,3.32a3.68,3.68,0,0,0-.4-1.47,2,2,0,0,0-1.93-1,2.14,2.14,0,0,0-1.63.71,2.69,2.69,0,0,0-.7,1.79Z"/>
    <path class="cls-1" d="M45.81,7.53h1.38v4.21a3.12,3.12,0,0,1,2.53-1.25,3.33,3.33,0,0,1,2.57,1.08,4.64,4.64,0,0,1,1,3.21,5.5,5.5,0,0,1-1,3.33,3.18,3.18,0,0,1-2.7,1.33A2.75,2.75,0,0,1,48,19a3.78,3.78,0,0,1-.85-.88v1.08H45.81Zm5.43,9.74a4.56,4.56,0,0,0,.58-2.42,4,4,0,0,0-.58-2.21,1.88,1.88,0,0,0-1.69-.88,2.37,2.37,0,0,0-1.71.72,3.22,3.22,0,0,0-.73,2.37,5.21,5.21,0,0,0,.3,1.93,2.08,2.08,0,0,0,2.1,1.4A1.9,1.9,0,0,0,51.24,17.27Z"/>
    <path class="cls-1" d="M61.05,11.55a4.28,4.28,0,0,1,1.12,3.21,5.53,5.53,0,0,1-1,3.38,3.58,3.58,0,0,1-3.06,1.33,3.45,3.45,0,0,1-2.76-1.18,4.68,4.68,0,0,1-1-3.17,5,5,0,0,1,1.08-3.39,3.62,3.62,0,0,1,2.89-1.27A3.81,3.81,0,0,1,61.05,11.55Zm-.88,5.63a5.5,5.5,0,0,0,.52-2.38,4.3,4.3,0,0,0-.38-1.93,2.1,2.1,0,0,0-2-1.17,2,2,0,0,0-1.88,1,4.64,4.64,0,0,0-.58,2.4,4,4,0,0,0,.58,2.25,2.07,2.07,0,0,0,1.86.89A1.94,1.94,0,0,0,60.17,17.18Z"/>
    <path class="cls-1" d="M16.12,27.82a4.08,4.08,0,0,1,1.33,2.64H15.92a3.2,3.2,0,0,0-1-1.78A3.22,3.22,0,0,0,12.76,28,3.41,3.41,0,0,0,10,29.23a5.6,5.6,0,0,0-1,3.7,5.41,5.41,0,0,0,.94,3.31,3.25,3.25,0,0,0,2.79,1.27,2.94,2.94,0,0,0,2.6-1.34,5.11,5.11,0,0,0,.7-1.85h1.53a5.21,5.21,0,0,1-1.34,3.07,4.74,4.74,0,0,1-3.68,1.5,4.8,4.8,0,0,1-3.36-1.23,6.44,6.44,0,0,1-1.79-5,6.46,6.46,0,0,1,1.34-4.21,4.9,4.9,0,0,1,4-1.79A4.68,4.68,0,0,1,16.12,27.82Z"/>
    <path class="cls-1" d="M20.83,30.12v5.62a2.29,2.29,0,0,0,.2,1,1.37,1.37,0,0,0,1.37.76,1.94,1.94,0,0,0,2-1.32,5.44,5.44,0,0,0,.29-2V30.12h1.42v8.46H24.74V37.33a2.79,2.79,0,0,1-.67.81,2.9,2.9,0,0,1-1.94.67,2.49,2.49,0,0,1-2.42-1.21,3.69,3.69,0,0,1-.35-1.73V30.12Z"/>
    <path class="cls-1" d="M29.25,35.93A2,2,0,0,0,29.61,37a2.32,2.32,0,0,0,1.9.68,2.84,2.84,0,0,0,1.42-.34,1.13,1.13,0,0,0,.61-1.06.89.89,0,0,0-.49-.83,6,6,0,0,0-1.23-.41l-1.15-.28a5.77,5.77,0,0,1-1.62-.6,1.79,1.79,0,0,1-.93-1.6A2.43,2.43,0,0,1,29,30.64a3.57,3.57,0,0,1,2.36-.74A3.28,3.28,0,0,1,34.14,31a2.41,2.41,0,0,1,.53,1.53H33.32a1.51,1.51,0,0,0-.35-.87,2.24,2.24,0,0,0-1.73-.56,2.15,2.15,0,0,0-1.25.31.94.94,0,0,0-.43.81,1,1,0,0,0,.56.88,3.35,3.35,0,0,0,.95.35l1,.23a7.24,7.24,0,0,1,2.09.72A1.9,1.9,0,0,1,35,36.13a2.6,2.6,0,0,1-.87,1.95,3.71,3.71,0,0,1-2.64.82,3.58,3.58,0,0,1-2.71-.85,3.26,3.26,0,0,1-.85-2.12Z"/>
    <path class="cls-1" d="M36.77,27.76h1.44v2.36h1.35v1.16H38.21V36.8a.59.59,0,0,0,.3.59,1.24,1.24,0,0,0,.55.09h.23l.27,0v1.13a2.71,2.71,0,0,1-.51.1,4.91,4.91,0,0,1-.57,0,1.55,1.55,0,0,1-1.35-.51,2.24,2.24,0,0,1-.36-1.32v-5.6H35.63V30.12h1.14Z"/>
    <path class="cls-1" d="M47.11,31a4.28,4.28,0,0,1,1.12,3.21,5.52,5.52,0,0,1-1,3.38,3.59,3.59,0,0,1-3.07,1.33,3.43,3.43,0,0,1-2.75-1.18,4.68,4.68,0,0,1-1-3.17,5.08,5.08,0,0,1,1.07-3.39,3.61,3.61,0,0,1,2.89-1.26A3.79,3.79,0,0,1,47.11,31Zm-.88,5.63a5.36,5.36,0,0,0,.52-2.38,4.3,4.3,0,0,0-.38-1.93,2.08,2.08,0,0,0-2-1.16,2,2,0,0,0-1.88,1,4.64,4.64,0,0,0-.58,2.4,4,4,0,0,0,.58,2.25,2.06,2.06,0,0,0,1.86.9A1.94,1.94,0,0,0,46.23,36.59Z"/>
    <path class="cls-1" d="M50,30.12h1.41v1.2a4.55,4.55,0,0,1,.91-.91,2.77,2.77,0,0,1,1.6-.48,2.26,2.26,0,0,1,2.26,1.34,3,3,0,0,1,1.11-1,3.12,3.12,0,0,1,1.44-.33A2.35,2.35,0,0,1,61,31.16,4.06,4.06,0,0,1,61.36,33v5.63H59.88V32.7a1.37,1.37,0,0,0-.42-1.16,1.66,1.66,0,0,0-1-.31,2,2,0,0,0-1.44.56,2.45,2.45,0,0,0-.6,1.87v4.92H54.94V33.06a2.84,2.84,0,0,0-.21-1.26,1.24,1.24,0,0,0-1.2-.59,2.11,2.11,0,0,0-1.47.62,3.07,3.07,0,0,0-.66,2.26v4.49H50Z"/>
    <path class="cls-1" d="M8.48,54.25a3.12,3.12,0,0,0,.45,1.6A2.91,2.91,0,0,0,11.58,57a4.46,4.46,0,0,0,1.55-.25A1.77,1.77,0,0,0,14.49,55a1.52,1.52,0,0,0-.58-1.35A5.31,5.31,0,0,0,12.09,53l-1.52-.36a6.72,6.72,0,0,1-2.11-.76,2.44,2.44,0,0,1-1.07-2.17,3.39,3.39,0,0,1,1-2.57,4.15,4.15,0,0,1,3-1,5.06,5.06,0,0,1,3,.88,3.19,3.19,0,0,1,1.24,2.81H14.2a2.9,2.9,0,0,0-.48-1.43,2.77,2.77,0,0,0-2.34-.91A2.64,2.64,0,0,0,9.46,48a1.85,1.85,0,0,0-.58,1.36,1.34,1.34,0,0,0,.69,1.25,11,11,0,0,0,2,.63l1.58.37a4.75,4.75,0,0,1,1.76.73A2.81,2.81,0,0,1,16,54.75a3,3,0,0,1-1.37,2.75,5.93,5.93,0,0,1-3.17.83,4.68,4.68,0,0,1-3.31-1.11,3.73,3.73,0,0,1-1.17-3Z"/>
    <path class="cls-1" d="M19.47,49.53v5.62a2.5,2.5,0,0,0,.2,1.06,1.41,1.41,0,0,0,1.38.76,2,2,0,0,0,2-1.33,5.44,5.44,0,0,0,.28-2V49.53h1.43V58H23.38l0-1.25a2.87,2.87,0,0,1-.68.82,2.92,2.92,0,0,1-1.93.66A2.48,2.48,0,0,1,18.37,57,3.69,3.69,0,0,1,18,55.28V49.53Z"/>
    <path class="cls-1" d="M26.93,49.57h1.39v1.12a3.53,3.53,0,0,1,.93-.89,3,3,0,0,1,1.7-.47,3.16,3.16,0,0,1,2.44,1.1,4.45,4.45,0,0,1,1,3.15,4.82,4.82,0,0,1-1.45,4,3.29,3.29,0,0,1-2.14.75,2.9,2.9,0,0,1-1.61-.42,3.52,3.52,0,0,1-.85-.82v4.32H26.93Zm5.35,6.63a3.94,3.94,0,0,0,.66-2.49A4.8,4.8,0,0,0,32.65,52a2.15,2.15,0,0,0-4.06.08,5.75,5.75,0,0,0-.3,2,4.1,4.1,0,0,0,.3,1.66,2.15,2.15,0,0,0,3.69.48Z"/>
    <path class="cls-1" d="M35.93,49.57h1.39v1.12a3.39,3.39,0,0,1,.93-.89,3,3,0,0,1,1.69-.47,3.16,3.16,0,0,1,2.45,1.1,4.5,4.5,0,0,1,1,3.15,4.85,4.85,0,0,1-1.45,4,3.31,3.31,0,0,1-2.14.75,2.9,2.9,0,0,1-1.61-.42,3.52,3.52,0,0,1-.85-.82v4.32H35.93Zm5.34,6.63a3.87,3.87,0,0,0,.67-2.49,4.59,4.59,0,0,0-.3-1.74,2.15,2.15,0,0,0-4.06.08,6,6,0,0,0-.29,2,4.29,4.29,0,0,0,.29,1.66,2.15,2.15,0,0,0,3.69.48Z"/>
    <path class="cls-1" d="M51.17,50.38a4.24,4.24,0,0,1,1.12,3.2,5.53,5.53,0,0,1-1,3.38,3.56,3.56,0,0,1-3.06,1.33,3.45,3.45,0,0,1-2.76-1.18,4.66,4.66,0,0,1-1-3.17,5,5,0,0,1,1.08-3.39,3.59,3.59,0,0,1,2.88-1.26A3.78,3.78,0,0,1,51.17,50.38ZM50.29,56a5.47,5.47,0,0,0,.52-2.38,4.3,4.3,0,0,0-.38-1.93,2.11,2.11,0,0,0-2-1.16,2,2,0,0,0-1.87,1,4.64,4.64,0,0,0-.59,2.4,4,4,0,0,0,.59,2.25,2.06,2.06,0,0,0,1.86.9A2,2,0,0,0,50.29,56Z"/>
    <path class="cls-1" d="M54.08,49.53h1.35V51a3.29,3.29,0,0,1,.81-1,2.14,2.14,0,0,1,1.49-.61h.14l.32,0v1.5l-.23,0h-.23a2.05,2.05,0,0,0-1.66.69,2.47,2.47,0,0,0-.57,1.6V58H54.08Z"/>
    <path class="cls-1" d="M59.71,47.17h1.43v2.36H62.5v1.16H61.14v5.52a.6.6,0,0,0,.3.6,1.51,1.51,0,0,0,.56.08h.22l.28,0V58a3.06,3.06,0,0,1-.51.1,3.52,3.52,0,0,1-.58,0,1.55,1.55,0,0,1-1.35-.51,2.32,2.32,0,0,1-.35-1.33v-5.6H58.56V49.53h1.15Z"/>
    <line class="cls-2" x1="83.33" y1="33.94" x2="66.97" y2="33.94"/>
    <polygon class="cls-3" points="82.31 30.45 88.36 33.94 82.31 37.43 82.31 30.45"/>
    <rect class="cls-4" x="89.86" y="18.44" width="31" height="31" rx="4.5"/>
    <path class="cls-1" d="M116.36,18.94a4,4,0,0,1,4,4v22a4,4,0,0,1-4,4h-22a4,4,0,0,1-4-4v-22a4,4,0,0,1,4-4h22m0-1h-22a5,5,0,0,0-5,5v22a5,5,0,0,0,5,5h22a5,5,0,0,0,5-5v-22a5,5,0,0,0-5-5Z"/>
    <polyline class="cls-5" points="94.38 28.69 111.27 28.69 111.27 36.14"/>
    <rect class="cls-4" x="106.82" y="36.29" width="9.02" height="9.02"/>
    <path class="cls-1" d="M115.34,36.79v8h-8v-8h8m1-1h-10v10h10v-10Z"/>
    <polygon class="cls-4" points="97.82 22.94 107.68 28.69 97.82 34.44 97.82 22.94"/>
    <path class="cls-1" d="M98.32,23.81l8.36,4.88-8.36,4.87V23.81m-1-1.74V35.31l11.35-6.62L97.32,22.07Z"/>
</svg>
