<?xml version="1.0" encoding="utf-8"?>
<svg xmlns="http://www.w3.org/2000/svg"
     xmlns:d="http://www.mathworks.com/blockgraphics"
     d:options="PreserveAspect:On;Resize:FitToBlock;Frame:Adaptive;Rotate:Off"
     height="100"
     id="Layer_1"
     version="1.1"
     width="150">
   <defs>
      <style>.cls-1{fill:#b3b3b3;}.cls-2{fill:#737373;}.cls-3{fill:#a6a6a6;}.cls-4,.cls-5{fill:none;stroke-linecap:round;stroke-width:9px;}.cls-4,.cls-7{stroke:#b3b3b3;}.cls-4,.cls-5,.cls-7{stroke-miterlimit:10;}.cls-5{stroke:#ccc;}.cls-6,.cls-8{fill:#404040;}.cls-7{fill:#f2f2f2;}.cls-8{font-size:10px;font-family:LMRoman12-Bold, Latin Modern Roman;font-weight:700;}.cls-10,.cls-9{font-family:LatinModernMath-Regular, Latin Modern Math;font-weight:400;}.cls-9{letter-spacing:0em;}</style>
   </defs>
   <title>Jacobian_042619</title>
   <path class="cls-1"
         d="M83.89,26.45l-4,3.39H74.08a3,3,0,0,1-3-3V24.51H67.53V20.88h3.53v-2.3a3,3,0,0,1,3-3h5.78l4,3.39H74.24v7.51Z"/>
   <rect class="cls-2" height="2.08" width="5.34" x="78.55" y="24.38"/>
   <rect class="cls-2" height="2.08" width="5.34" x="78.55" y="18.94"/>
   <path class="cls-3"
         d="M53,52.38h0a7.82,7.82,0,0,1,7.82,7.82v9a0,0,0,0,1,0,0H45.21a0,0,0,0,1,0,0v-9A7.82,7.82,0,0,1,53,52.38Z"/>
   <line class="cls-4" x1="55.09" x2="32.86" y1="22.7" y2="22.7"/>
   <line class="cls-5" x1="32.86" x2="53.01" y1="22.7" y2="57.92"/>
   <line class="cls-5" x1="54.68" x2="63.8" y1="22.73" y2="22.73"/>
   <circle class="cls-6" cx="53.01" cy="57.92" r="2.43"/>
   <circle class="cls-6" cx="54.67" cy="22.73" r="2.43"/>
   <circle class="cls-6" cx="32.94" cy="22.73" r="2.43"/>
   <rect class="cls-7" height="16.81" width="27.41" x="93.85" y="14.23"/>
   <text class="cls-8" transform="translate(97.79 26.02)">J<tspan class="cls-9" x="5.81" y="0">(</tspan>
      <tspan x="9.7" y="0">q</tspan>
      <tspan class="cls-10" x="15.64" y="0">)</tspan>
   </text>
</svg>