<?xml version="1.0" encoding="utf-8"?>
<svg xmlns="http://www.w3.org/2000/svg"
     xmlns:d="http://www.mathworks.com/blockgraphics"
     d:options="PreserveAspect:On;Resize:FitToBlock;Frame:Adaptive;Rotate:Off"
     height="100"
     id="Layer_1"
     version="1.1"
     width="150">
   <defs>
      <style>.cls-1{fill:#a6a6a6;}.cls-2{fill:#ccc;}.cls-3,.cls-5{fill:#404040;}.cls-4,.cls-6{fill:none;stroke:#404040;stroke-linecap:round;}.cls-4{stroke-linejoin:round;}.cls-5{font-size:10px;font-family:LMRoman12-Bold, Latin Modern Roman;font-weight:700;}.cls-6,.cls-7{stroke-miterlimit:10;}.cls-6{stroke-width:2px;}.cls-7{fill:#f2f2f2;stroke:#b3b3b3;}.cls-8,.cls-9{font-family:LatinModernMath-Regular, Latin Modern Math;font-weight:400;}.cls-9{letter-spacing:0em;}</style>
   </defs>
   <title>Gravity Torque_042619</title>
   <path class="cls-1"
         d="M80.27,43.9,81,42,77,40.4l-2.72,7,4,1.56L79.05,47,84,49l-.76,1.93-5,1.7L72.9,50.5a3,3,0,0,1-1.72-3.91L72,44.44,69.1,43.3a4.48,4.48,0,0,1-4.84,1L55.76,41l-.43-.19L35.43,33.1a4.5,4.5,0,0,1,3.27-8.39l20.72,8.06a4.37,4.37,0,0,1,.49.23l7.61,3a4.51,4.51,0,0,1,2.87,4l2.94,1.14.84-2.15a3,3,0,0,1,3.91-1.72l5.39,2.09L86,43.9l-.75,1.94Z"/>
   <path class="cls-2"
         d="M80.51,14.86l5.13-1.47-.57-2-5.13,1.48Zm6.06,1.76L81.44,18.1l.57,2-4.14,1.19L75.8,14.06l9.27-2.67L80.26,9.25l-5.55,1.6a3,3,0,0,0-2.08,3.74l.64,2.21-3,.88a4.5,4.5,0,0,0-4.67-1.43l-8.11,2.33a2.56,2.56,0,0,0-.27.05L36,24.7a5,5,0,0,0-1.2.45,4.45,4.45,0,0,0-1.68,1.74l0,0a4.37,4.37,0,0,0-.29.67l-.06.16a3.9,3.9,0,0,0-.13.57c0,.11,0,.21-.05.31a3.69,3.69,0,0,0,0,.47,3.05,3.05,0,0,0,0,.43c0,.13,0,.24.06.37s0,.29.08.44l.05.11a.19.19,0,0,0,0,.07,4.54,4.54,0,0,0,.35.78h0L50.79,62.13a7.76,7.76,0,0,0-1.38,4.43v9H65.05v-9a7.82,7.82,0,0,0-5.65-7.51L43.82,31.83,58.89,27.5l.38-.08L68,24.9a4.5,4.5,0,0,0,3.22-3.74l3-.87.64,2.22a3,3,0,0,0,3.74,2.07L84.2,23l2.94-4.36Z"/>
   <circle class="cls-3" cx="57.2" cy="64.28" r="2.43"/>
   <path class="cls-4" d="M54.64,59a5.81,5.81,0,1,1-3,7.64"/>
   <polygon class="cls-3" points="56.13 60.75 51.68 60.23 54.35 56.63 56.13 60.75"/>
   <circle class="cls-3" cx="37.13" cy="29.09" r="2.43"/>
   <path class="cls-4" d="M39.32,34.48A5.81,5.81,0,1,1,42.66,27"/>
   <polygon class="cls-3" points="37.91 32.62 42.34 33.33 39.51 36.81 37.91 32.62"/>
   <text class="cls-5" transform="translate(89.76 44.82)">g</text>
   <line class="cls-6" x1="92.57" x2="92.57" y1="14.08" y2="33.48"/>
   <polygon class="cls-3" points="89.08 32.45 92.57 38.5 96.06 32.45 89.08 32.45"/>
   <path class="cls-4" d="M63.63,21.56a5.81,5.81,0,1,1-7.14-4.07"/>
   <polygon class="cls-3" points="61.64 22.78 62.78 18.44 65.97 21.6 61.64 22.78"/>
   <circle class="cls-3" cx="58.02" cy="23.09" r="2.43"/>
   <rect class="cls-7" height="16.81" width="27.41" x="103.85" y="14.23"/>
   <text class="cls-5" transform="translate(106.28 26.02)">G<tspan class="cls-8" x="8.84" y="0">(</tspan>
      <tspan x="12.73" y="0">q</tspan>
      <tspan class="cls-9" x="18.67" y="0">)</tspan>
   </text>
</svg>