<?xml version="1.0" encoding="utf-8"?>
<svg xmlns="http://www.w3.org/2000/svg"
     xmlns:d="http://www.mathworks.com/blockgraphics"
     d:options="PreserveAspect:On;Resize:FitToBlock;Frame:Adaptive;Rotate:Off"
     height="100"
     id="Layer_1"
     version="1.1"
     width="150">
   <defs>
      <style>.cls-1{fill:#a6a6a6;}.cls-2{fill:#ccc;}.cls-3,.cls-8,.cls-9{fill:#404040;}.cls-4,.cls-5,.cls-6{fill:none;stroke-linecap:round;}.cls-4,.cls-6{stroke:#404040;}.cls-4{stroke-linejoin:round;}.cls-5{stroke:#ccc;stroke-width:9px;}.cls-5,.cls-6,.cls-7{stroke-miterlimit:10;}.cls-7{fill:#f2f2f2;stroke:#b3b3b3;}.cls-8{font-size:10px;font-family:LMRoman12-Bold, Latin Modern Roman;font-weight:700;}.cls-9{font-size:14px;font-family:LatinModernMath-Regular, Latin Modern Math;}</style>
   </defs>
   <title>Joint Space Motion Control_042619</title>
   <path class="cls-1"
         d="M87.76,56.11l.8-1.91-4-1.68-2.92,6.93,4,1.67.8-1.92,4.93,2.08-.82,1.91-5,1.56L80.21,62.5a3,3,0,0,1-1.61-4l.9-2.12L76.61,55.2a4.46,4.46,0,0,1-4.87.9l-8.4-3.54-.43-.2L43.24,44.07a4.5,4.5,0,0,1,3.5-8.3L67.23,44.4c.16.08.32.15.48.25l7.52,3.16a4.48,4.48,0,0,1,2.76,4l2.91,1.23L81.8,51a3,3,0,0,1,4-1.61l5.33,2.24,2.4,4.69-.81,1.91Z"/>
   <path class="cls-2"
         d="M88.43,25.68l5.13-1.48-.57-2-5.13,1.47Zm6.06,1.75-5.13,1.48.57,2-4.14,1.19-2.08-7.22L93,22.21l-4.81-2.15-5.56,1.6a3,3,0,0,0-2.07,3.74l.64,2.22-3,.87a4.49,4.49,0,0,0-4.67-1.43l-8.1,2.33a2.56,2.56,0,0,0-.27.05L43.93,35.52a4.16,4.16,0,0,0-1.2.45A4.45,4.45,0,0,0,41,37.7v0a4.37,4.37,0,0,0-.29.67,1,1,0,0,0-.06.16,3.9,3.9,0,0,0-.13.57c0,.11,0,.21,0,.32a3.53,3.53,0,0,0,0,.46,3.23,3.23,0,0,0,0,.44c0,.12,0,.24.06.36s0,.29.08.44a.61.61,0,0,0,0,.12.14.14,0,0,0,0,.06,4.22,4.22,0,0,0,.35.78h0L58.71,72.94a7.76,7.76,0,0,0-1.38,4.43v9H73v-9a7.81,7.81,0,0,0-5.66-7.51L51.73,42.64l15.08-4.33a2.57,2.57,0,0,0,.38-.08L76,35.71A4.49,4.49,0,0,0,79.17,32l3-.87.63,2.22a3,3,0,0,0,3.74,2.07l5.56-1.59,2.94-4.37Z"/>
   <circle class="cls-3" cx="65.1" cy="75.09" r="2.43"/>
   <path class="cls-4" d="M62.54,69.76a5.81,5.81,0,1,1-3,7.64"/>
   <polygon class="cls-3" points="64.03 71.56 59.58 71.04 62.25 67.44 64.03 71.56"/>
   <line class="cls-5" x1="65.93" x2="74.69" y1="33.91" y2="31.39"/>
   <circle class="cls-3" cx="45.03" cy="39.9" r="2.43"/>
   <path class="cls-4" d="M47.22,45.29a5.81,5.81,0,1,1,3.34-7.5"/>
   <polygon class="cls-3" points="45.8 43.44 50.23 44.14 47.41 47.63 45.8 43.44"/>
   <path class="cls-4" d="M71.53,32.37a5.81,5.81,0,1,1-7.14-4.07"/>
   <polygon class="cls-3" points="69.54 33.6 70.67 29.25 73.87 32.41 69.54 33.6"/>
   <circle class="cls-3" cx="65.92" cy="33.91" r="2.43"/>
   <path class="cls-6" d="M93.71,36.24a74.72,74.72,0,0,1-.21,12.62"/>
   <polygon class="cls-3" points="91.8 48.16 93.2 51.35 95.27 48.54 91.8 48.16"/>
   <rect class="cls-7" height="16.81" width="23.41" x="104.42" y="18.24"/>
   <text class="cls-8" transform="translate(107.24 30.02)">Q</text>
   <text class="cls-9" transform="translate(115.69 32.68) scale(0.58)">ref</text>
</svg>