<?xml version="1.0" encoding="utf-8"?>
<svg xmlns="http://www.w3.org/2000/svg"
     xmlns:d="http://www.mathworks.com/blockgraphics"
     d:options="PreserveAspect:On;Resize:FitToBlock;Frame:Adaptive;Rotate:Off"
     height="100"
     id="Layer_1"
     version="1.1"
     width="150">
   <defs>
      <style>.cls-1{fill:#b3b3b3;}.cls-2{fill:#737373;}.cls-3{fill:#a6a6a6;}.cls-4,.cls-5{fill:none;stroke-linecap:round;stroke-width:9px;}.cls-4,.cls-7{stroke:#b3b3b3;}.cls-4,.cls-5,.cls-7{stroke-miterlimit:10;}.cls-5{stroke:#ccc;}.cls-6,.cls-8{fill:#404040;}.cls-7{fill:#f2f2f2;}.cls-8{font-size:10px;font-family:LMRoman12-Bold, Latin Modern Roman;font-weight:700;}.cls-10,.cls-9{font-family:LatinModernMath-Regular, Latin Modern Math;font-weight:400;}.cls-9{letter-spacing:0em;}</style>
   </defs>
   <title>Joint Space Mass Matrix_042619</title>
   <path class="cls-1"
         d="M82.4,30.37l-4,3.39H72.59a3,3,0,0,1-3-3v-2.3H66V24.8h3.53V22.49a3,3,0,0,1,3-3h5.78l4,3.39H72.75v7.51Z"/>
   <rect class="cls-2" height="2.08" width="5.34" x="77.06" y="28.29"/>
   <rect class="cls-2" height="2.08" width="5.34" x="77.06" y="22.86"/>
   <path class="cls-3"
         d="M51.54,56.29h0a7.82,7.82,0,0,1,7.82,7.82v9a0,0,0,0,1,0,0H43.72a0,0,0,0,1,0,0v-9a7.82,7.82,0,0,1,7.82-7.82Z"/>
   <line class="cls-4" x1="53.6" x2="31.36" y1="26.61" y2="26.61"/>
   <line class="cls-5" x1="31.36" x2="51.52" y1="26.61" y2="61.84"/>
   <line class="cls-5" x1="53.18" x2="62.3" y1="26.64" y2="26.64"/>
   <circle class="cls-6" cx="51.52" cy="61.84" r="2.43"/>
   <circle class="cls-6" cx="53.18" cy="26.64" r="2.43"/>
   <circle class="cls-6" cx="31.44" cy="26.64" r="2.43"/>
   <rect class="cls-7" height="16.81" width="31.41" x="89.57" y="18.23"/>
   <text class="cls-8" transform="translate(93.08 30.02)">M<tspan class="cls-9" x="10.67" y="0">(</tspan>
      <tspan x="14.56" y="0">q</tspan>
      <tspan class="cls-10" x="20.5" y="0">)</tspan>
   </text>
</svg>