<?xml version="1.0" encoding="utf-8"?>
<svg xmlns="http://www.w3.org/2000/svg"
     xmlns:d="http://www.mathworks.com/blockgraphics"
     d:options="PreserveAspect:On;Resize:FitToBlock;Frame:Adaptive;Rotate:Off"
     height="100"
     id="Layer_1"
     version="1.1"
     width="150">
   <defs>
      <style>.cls-1{fill:#bfbfbf;}.cls-2{fill:#999;}.cls-3{fill:#404040;}.cls-4{fill:#333;}.cls-5{fill:gray;}</style>
   </defs>
   <title>Manipulator Algorithms_042619</title>
   <polygon class="cls-1"
            points="81.29 56.98 62.09 33.4 54.51 34.06 72.08 68.98 81.29 56.98"/>
   <path class="cls-2"
         d="M59.2,80.57H93.92V76.7a2.45,2.45,0,0,0-2.45-2.45H61.65A2.45,2.45,0,0,0,59.2,76.7Z"/>
   <path class="cls-1"
         d="M62.64,74.25h25V63.64a3.5,3.5,0,0,0-3.5-3.5H72.56L70.89,66,63,71.6Z"/>
   <path class="cls-2"
         d="M63.17,32.79H53.7V28.22a4.9,4.9,0,0,1,4.9-4.9h2.82a1.75,1.75,0,0,1,1.75,1.75v7.72Z"/>
   <rect class="cls-1" height="6.31" transform="translate(138.97 56.1) rotate(-180)"
         width="12.62"
         x="63.17"
         y="24.9"/>
   <path class="cls-2"
         d="M78.35,53.83a6.1,6.1,0,0,1,6.1,6.1c0,3.37-8.15,12.21-10.68,12.21a4.58,4.58,0,0,1-4.58-4.58C69.19,65.25,72.24,53.83,78.35,53.83Z"/>
   <path class="cls-2"
         d="M75.8,23.32h1.4A1.75,1.75,0,0,1,79,25.07v6a1.75,1.75,0,0,1-1.75,1.75H74.39A1.75,1.75,0,0,1,72.64,31v-6a1.75,1.75,0,0,1,1.75-1.75Z"/>
   <rect class="cls-1" height="2.39" width="4.05" x="87.97" y="37.76"/>
   <path class="cls-2"
         d="M96.31,41.9v1.41H83.69V41.9a1.74,1.74,0,0,1,1.74-1.75h9.13A1.75,1.75,0,0,1,96.31,41.9Z"/>
   <path class="cls-2"
         d="M56.68,32.79h3.51a3,3,0,0,1,3,3v.18a0,0,0,0,1,0,0H53.7a0,0,0,0,1,0,0v-.18A3,3,0,0,1,56.68,32.79Z"
         transform="translate(116.88 68.74) rotate(-180)"/>
   <path class="cls-2"
         d="M86.66,34.6h6.67a3,3,0,0,1,3,3v.18a0,0,0,0,1,0,0H83.69a0,0,0,0,1,0,0v-.18A3,3,0,0,1,86.66,34.6Z"
         transform="translate(179.99 72.36) rotate(-180)"/>
   <path class="cls-2"
         d="M85.26,20.58h9.47a0,0,0,0,1,0,0v8.79a4.47,4.47,0,0,1-4.47,4.47h-.53a4.47,4.47,0,0,1-4.47-4.47V20.58a0,0,0,0,1,0,0Z"
         transform="translate(179.99 54.42) rotate(-180)"/>
   <rect class="cls-1" height="3.16" transform="translate(161.06 56.11) rotate(-180)"
         width="3.16"
         x="78.95"
         y="26.48"/>
   <rect class="cls-3" height="4.74" rx="2.24"
         transform="translate(179.99 50.6) rotate(-180)"
         width="4.74"
         x="87.63"
         y="22.93"/>
   <rect class="cls-3" height="4.74" rx="2.24"
         transform="translate(116.76 56.64) rotate(-180)"
         width="4.74"
         x="56.01"
         y="25.95"/>
   <rect class="cls-3" height="6.31" rx="2.98"
         transform="translate(156.28 120.28) rotate(180)"
         width="6.31"
         x="74.98"
         y="56.98"/>
   <polygon class="cls-2"
            points="82.11 30.68 85.26 31.73 85.26 24.37 82.11 25.42 82.11 30.68"/>
   <rect class="cls-2" height="2.11" transform="translate(179.99 67.1) rotate(-180)"
         width="12.62"
         x="83.69"
         y="32.5"/>
   <path class="cls-2" d="M93.15,51.12h.36c1.55,0,2.8-2.75,2.8-4.3V43.31H93.15Z"/>
   <path class="cls-2" d="M83.69,43.31v3.51c0,1.55,1.25,4.3,2.79,4.3h.36V43.31Z"/>
   <rect class="cls-4" height="4.01" transform="translate(185.32 98.22) rotate(-180)"
         width="0.99"
         x="92.16"
         y="47.11"/>
   <rect class="cls-4" height="4.01" transform="translate(174.67 98.22) rotate(-180)"
         width="0.99"
         x="86.84"
         y="47.11"/>
   <circle class="cls-5" cx="75.03" cy="25.89" r="1.17"/>
   <circle class="cls-5" cx="76.56" cy="30.23" r="1.17"/>
</svg>