<?xml version="1.0" encoding="utf-8"?>
<svg xmlns="http://www.w3.org/2000/svg"
     xmlns:d="http://www.mathworks.com/blockgraphics"
     d:options="PreserveAspect:On;Resize:FitToBlock;Frame:Adaptive;Rotate:Off"
     height="100"
     id="Layer_1"
     version="1.1"
     width="150">
   <defs>
      <style>.cls-1{fill:#d9d9d9;}.cls-2,.cls-7{fill:none;stroke:#333;}.cls-2{stroke-miterlimit:10;}.cls-3{fill:#333;}.cls-4{isolation:isolate;}.cls-5{fill:#999;}.cls-6{fill:#fff;}.cls-7{stroke-linecap:round;stroke-linejoin:round;stroke-dasharray:3;}</style>
   </defs>
   <title>Unicycle_042619</title>
   <polygon class="cls-1"
            points="123.49 52.81 69.08 84.43 30.64 62.24 85.05 30.62 123.49 52.81"/>
   <polyline class="cls-2" points="30.64 35.84 30.64 62.24 49.54 73.15"/>
   <polygon class="cls-3" points="28.4 36.5 30.64 32.61 32.89 36.5 28.4 36.5"/>
   <polygon class="cls-3" points="47.85 74.76 52.34 74.76 50.09 70.87 47.85 74.76"/>
   <polygon class="cls-3"
            points="77.65 57.59 96.23 46.8 97.3 47.42 98.29 45.24 94.54 45.82 95.61 46.44 76.42 57.59 77.65 57.59"/>
   <polygon class="cls-3"
            points="30.98 62.5 49.56 51.7 50.63 52.33 51.62 50.15 47.87 50.73 48.94 51.35 30.51 62.06 30.98 62.5"/>
   <g class="cls-4">
      <path class="cls-5"
            d="M91.78,29.05a16.47,16.47,0,0,0-.84-3.11,13.24,13.24,0,0,0-1.12-2.26,11.63,11.63,0,0,0-1.89-2.35,7.65,7.65,0,0,0-.74-.65c-.39-.29-.94-.67-1.35-.93l-.68-.39-.51-.28a11.58,11.58,0,0,0-6.32-1.21,15.54,15.54,0,0,0-3.87.82c-.72.24-1.64.67-2.34,1-.36.17-.82.45-1.18.64a31.75,31.75,0,0,0-9.71,9.21,38.77,38.77,0,0,0-3.45,6,34.19,34.19,0,0,0-2.28,6.41,26.87,26.87,0,0,0-.82,6.57,20,20,0,0,0,.25,3.21,21.39,21.39,0,0,0,.54,2.34,13.6,13.6,0,0,0,1.08,2.56,12.56,12.56,0,0,0,1.27,1.9A11.47,11.47,0,0,0,59.26,60a7.47,7.47,0,0,0,.92.68s0,0,0,0l.17.11a5.29,5.29,0,0,0,.5.32l.68.39A11.43,11.43,0,0,0,66.11,63a13.08,13.08,0,0,0,4.36-.28c8-1.79,16.09-10.22,19.77-20.52a30.34,30.34,0,0,0,1.63-6.81A22,22,0,0,0,91.78,29.05Zm-15.31,30c-8.11,4.68-14.7.92-14.72-8.39S68.27,30,76.37,25.36s14.7-.92,14.73,8.39S84.57,54.41,76.47,59.09Z"/>
      <path class="cls-6"
            d="M91.1,33.75c0,9.31-6.53,20.66-14.63,25.34S61.77,60,61.75,50.7,68.27,30,76.37,25.36,91.07,24.44,91.1,33.75Z"/>
   </g>
   <polyline class="cls-7" points="95.03 67.99 77 57.59 77 9.57"/>
   <polygon class="cls-3"
            points="86.24 41.16 87.16 41.22 87.68 41.26 88.61 41.32 86.29 44.24 86.24 41.16"/>
   <path class="cls-3"
         d="M77.1,28.69a9.31,9.31,0,0,1,6.56-1.42c4.56,1,6.22,6.85,4,14l-.52,0c2-6.73.47-12.24-3.83-13.19a8.78,8.78,0,0,0-6.21,1.34l-.24.14c.32-.36-.07-.3,0-.69Z"/>
   <polygon class="cls-3"
            points="94.4 51 93.18 51.5 92.47 51.79 91.23 52.3 90.87 50.05 94.4 51"/>
   <path class="cls-3"
         d="M93.18,51.5c4.49,4.43,3.14,10.14-3.13,13.7-.32.19-.84-.23-.5-.42,5.88-3.4,7.14-8.79,2.92-13Z"/>
</svg>